<svg xmlns="http://www.w3.org/2000/svg" viewBox="0 0 36.89 85.49"><defs><style>.cls-1{fill:#5c9e97;}.cls-2{fill:#595757;}</style></defs><title>資產 34</title><g id="圖層_2" data-name="圖層 2"><g id="手機直排"><path class="cls-1" d="M36.89,53.55A18.45,18.45,0,1,1,18.45,35.11,18.44,18.44,0,0,1,36.89,53.55Z"/><path class="cls-2" d="M17.05,4.06c0-.08.1-1,.1-1.11s-.1-.55-.1-.62a2.28,2.28,0,0,0-.31-1.11c-.07-.14-.45-.67-.5-.79a1.07,1.07,0,0,1,.31-.38L17,0c.15.1.17.1.51.12a5.48,5.48,0,0,1,.6.29,1.38,1.38,0,0,1,.79.53c.15.16.91.72,1.06.86.26.31.41.5.41.7a1.86,1.86,0,0,1-.41.84,31.18,31.18,0,0,0-1.27,3l-.63,2a2.56,2.56,0,0,0,0,.37c0,.67,1.32,2,1.63,2.25.12.12,2.35,2.33,2.42,2.38.6.45,3,2,3.75,2.47S28,17.14,29,17.76a2.1,2.1,0,0,1,.86.77c.19.12.26.22.26.31,0,.29-.79.36-.91.36-1.13,0-3.38-.26-3.91-.69l-.48-.39-1.49-1.44c-.05-.05-.14-.26-.19-.29A18.82,18.82,0,0,1,21.83,15c-.26-.24-1.1-1.2-1.51-1.63S17.94,10.46,17.56,10c-.39.57-1.83,3.26-2.16,3.79-.79,1.2-3.58,4.22-5.52,5a5.52,5.52,0,0,1-1.54.38c-.1,0-.24,0-.24-.16s.41-.41.48-.48.19-.15.84-.6c.22-.17,1.22-1.35,1.63-1.83,2-2.25,2.19-2.49,2.86-3.74a21.88,21.88,0,0,0,1.85-4c.07-.17.36-.89.41-1.06s.24-.65.26-.77Z"/><path class="cls-2" d="M17.29,25.06a4.16,4.16,0,0,0-1.1-2.64c-.27-.22-.27-.36-.27-.44,0-.4.2-.48,1.08-.48a4.36,4.36,0,0,1,2.12,1c.67.5.84.65.84.89,0,0-.34.84-.39,1a3.24,3.24,0,0,0-.16,1.3v.43l.88-.17,2.21-.19L24,25.49c.32-.22.36-.24.58-.24,1.25,0,2.93,1.2,2.93,1.63,0,.6-.65.6-1.27.6a2.24,2.24,0,0,1-.36-.14c-.72-.12-1.73-.29-2.24-.36a17.72,17.72,0,0,0-2-.1,1.18,1.18,0,0,0-.41.07V27A17,17,0,0,1,23,28.39a1.91,1.91,0,0,1,.15.58c0,.12-.89.89-1,1.08a34.36,34.36,0,0,1-2,3.72c-.07.12-.26.45-.5.79,0,.34,2,1.73,2.06,1.78.41.26,2.47,1.73,2.95,2l3.29,1.9c1.15.6,1.3.65,1.3,1,0,.17-.1.24-.27.31s-1.89.08-2.13.08a9.53,9.53,0,0,1-1.92-.34,34.62,34.62,0,0,1-3.46-2.81c-.33-.36-1.94-1.87-2.21-2.23s-.33-.43-.48-.43-.24.14-.4.38c-.87,1.11-4.95,3.51-5.19,3.6l-1.85.67a7.8,7.8,0,0,1-1.46.2c-.31,0-.34,0-.46-.15.05-.36.67-.57,1.11-.74.67-.43,1.34-.87,2-1.25a22.89,22.89,0,0,0,4.75-4.08c.05-.07.1-.12.1-.19,0-.31-.6-.87-1-1.25a6.29,6.29,0,0,1-.5-.63l-1.42-1.67a8.55,8.55,0,0,0-.72-.77c-.14-.1-.91-.34-1.06-.41v-.1a1.45,1.45,0,0,1,1-.31,4.85,4.85,0,0,1,1.57.65c.59.74,1.51,1.92,2.2,2.66.05.05.65.65.8.65.33,0,2.23-3.74,2.23-4.75,0-.24-.53-1.44-1-1.35l-2.69.53a28.71,28.71,0,0,0-3.6,1.06c-.1.05-.55.36-.65.41h-.12a6.36,6.36,0,0,1-2.66-1.08.58.58,0,0,1-.1-.56,6.3,6.3,0,0,1,1.15.1c.08,0,.46.1.56.1.45,0,5-1,6-1.13Z"/><path class="cls-2" d="M20.27,53.19A1.88,1.88,0,0,1,18.45,55a1.85,1.85,0,0,1-1.85-1.82,1.8,1.8,0,0,1,1.85-1.85A1.85,1.85,0,0,1,20.27,53.19Z"/><path class="cls-2" d="M13.76,72.58c-.38.21-1.48.57-2.08.79l-.7.31c-.1.12-.22.24-.65.24-.12,0-1.77-1.13-1.89-1.75,0,0,0-.07,0-.12A1,1,0,0,1,8.7,72c.07,0,.12,0,.58.21a1.72,1.72,0,0,0,.69.15,7.51,7.51,0,0,0,2.12-.55c.14-.05,1-.41,1.08-.46a5.06,5.06,0,0,1,.62-.79,1,1,0,0,1,.31-.05c.74,0,2.9,1.7,2.9,2.16s-.12.65-.79.93-1.12,1.33-1.37,1.78c0,.07-1.6,2.28-1.75,2.45s-.91,1.13-1.08,1.3-1.1,1-1.29,1.1a7.87,7.87,0,0,0-.87.6,8.12,8.12,0,0,1-2,.77.25.25,0,0,1-.15-.24c0-.22,1.2-1.23,1.44-1.47a22,22,0,0,0,2.38-2.73c.6-.82,2.52-4,2.47-4.59Zm3.92,4.82.07-2.23-.07-2.3c0-.46,0-.65,0-1.08,0-.25-.09-1.33-.09-1.54,0-.77,0-4.11-.48-5.07a2.73,2.73,0,0,0-.65-.79s-.24-.26-.29-.31l0-.07c.14,0,.79-.07.91-.07a2.58,2.58,0,0,1,1.2.28l.65.6c.36.22,1.32.92,1.32,1.42a6.77,6.77,0,0,1-.56,1.15A14.41,14.41,0,0,0,19.33,71c0,.14-.09.72-.09.84s.07.91.09,1a1.65,1.65,0,0,0,.17.31,6.78,6.78,0,0,0,2.28-1.61c.65-.45,2.47-2.16,2.47-2.76,0-.12-.07-.19-.24-.45a.36.36,0,0,1,0-.15A.65.65,0,0,1,24.4,68a2.79,2.79,0,0,1,.91.28c.22.15,1.51,1.3,1.51,1.85,0,.34-.19.39-.74.48,0,0-.46.17-.53.2-.26.09-1.34.93-1.58,1s-2.48,1.37-2.74,1.49-1,.38-1.15.46A2.33,2.33,0,0,0,21.13,75c.08.07.41.4.48.48l1.78,1.44c.14.12.86.52,1,.62s1.16.82,1.35.94,2.16,1.34,2.37,1.46c.44.17,1.2.46,1.2.94,0,.07,0,.14-.16.19-.34,0-.89.1-1.16.12l-1.17,0c-.19,0-1.11-.17-1.27-.17a16.9,16.9,0,0,1-2.12-1.9c-.07,0-.86-.86-.88-.89-.41-.5-.46-.57-.77-.74a25,25,0,0,0-2.11-2.4.49.49,0,0,0-.39-.07c-.05.52-.05,2.59-.05,3.24s.15,3.41.15,4c0,1.61-.84,3.31-1.44,3.31-.43,0-.53-.31-.65-.7s-.7-1.22-2-2.3a10.44,10.44,0,0,1-1.44-1.78c0-.09.09-.26.26-.26a3.67,3.67,0,0,1,.63.31,8.37,8.37,0,0,0,2.69.77,4.16,4.16,0,0,0,.26-1.44c0-.24.05-1,.05-1.2Z"/></g></g></svg>