<svg xmlns="http://www.w3.org/2000/svg" viewBox="0 0 30.76 69.95"><defs><style>.cls-1{fill:#edd037;}.cls-2{fill:#595757;}</style></defs><g id="圖層_2" data-name="圖層 2"><g id="妖怪資料卡"><path class="cls-1" d="M30.76,44.66A15.38,15.38,0,1,1,15.38,29.28,15.38,15.38,0,0,1,30.76,44.66Z"/><path class="cls-2" d="M14.22,3.38c0-.06.08-.86.08-.92s-.08-.46-.08-.52A1.92,1.92,0,0,0,14,1C13.9.9,13.58.46,13.54.36A1,1,0,0,1,13.8,0l.38,0c.12.08.14.08.42.1.08,0,.42.2.5.24a1.14,1.14,0,0,1,.67.44c.12.14.76.6.88.72s.34.42.34.58a1.51,1.51,0,0,1-.34.7,27.54,27.54,0,0,0-1.06,2.55L15.06,7c0,.1,0,.24,0,.3,0,.56,1.1,1.68,1.36,1.88.1.1,2,1.94,2,2,.5.38,2.46,1.68,3.12,2.06s1.76,1,2.64,1.56a1.77,1.77,0,0,1,.72.65c.16.09.23.17.23.25,0,.25-.67.31-.77.31a8.46,8.46,0,0,1-3.26-.58l-.4-.32-1.24-1.21s-.12-.22-.16-.24c-.5-.52-.6-.6-1.1-1.2-.22-.2-.92-1-1.26-1.36s-2-2.38-2.31-2.78c-.32.48-1.52,2.72-1.8,3.16-.66,1-3,3.53-4.6,4.17A4.45,4.45,0,0,1,7,16c-.08,0-.2,0-.2-.14s.34-.34.4-.4.16-.13.7-.5c.18-.15,1-1.13,1.36-1.53a13.83,13.83,0,0,0,2.38-3.12A18.19,18.19,0,0,0,13.14,7c.06-.14.3-.74.34-.88s.2-.54.22-.65Z"/><path class="cls-2" d="M14.42,20.89a3.5,3.5,0,0,0-.92-2.2c-.22-.18-.22-.3-.22-.36,0-.34.16-.4.9-.4a3.73,3.73,0,0,1,1.77.82c.56.42.7.54.7.74,0,0-.28.7-.32.84a2.68,2.68,0,0,0-.14,1.09v.36l.74-.15,1.84-.16L20,21.26c.26-.19.3-.21.48-.21,1,0,2.44,1,2.44,1.37s-.54.5-1.06.5a1.88,1.88,0,0,1-.3-.12l-1.86-.3c-.46-.06-1.3-.08-1.64-.08a1,1,0,0,0-.34.06v0a13.47,13.47,0,0,1,1.42,1.16,1.54,1.54,0,0,1,.12.48c0,.1-.74.74-.82.9a29,29,0,0,1-1.7,3.1c-.06.1-.22.38-.42.66,0,.28,1.66,1.44,1.72,1.48.34.22,2.06,1.45,2.46,1.69l2.74,1.58c1,.5,1.08.54,1.08.86,0,.14-.08.2-.22.26s-1.58.06-1.78.06a8.16,8.16,0,0,1-1.6-.28,27.19,27.19,0,0,1-2.88-2.35c-.28-.29-1.62-1.56-1.84-1.86s-.28-.36-.4-.36-.2.12-.34.32a23.61,23.61,0,0,1-4.33,3l-1.54.56A7.22,7.22,0,0,1,8.2,34c-.26,0-.28,0-.38-.12,0-.3.56-.48.92-.62.56-.36,1.12-.72,1.7-1a19,19,0,0,0,4-3.41c0-.06.08-.1.08-.16,0-.26-.5-.72-.82-1a5.3,5.3,0,0,1-.42-.52l-1.18-1.4c-.06-.06-.5-.58-.6-.64s-.76-.28-.88-.34v-.08a1.2,1.2,0,0,1,.8-.26,4.08,4.08,0,0,1,1.3.54c.5.62,1.26,1.6,1.84,2.22,0,0,.54.54.66.54.29,0,1.87-3.12,1.87-4,0-.2-.44-1.2-.84-1.12L14,23a24.7,24.7,0,0,0-3,.88c-.08,0-.46.3-.54.34h-.1a5.28,5.28,0,0,1-2.22-.9A.49.49,0,0,1,8,22.84a5.18,5.18,0,0,1,1,.08c.06,0,.38.08.46.08.38,0,4.18-.84,5-.94Z"/><path class="cls-2" d="M16.91,44.35a1.57,1.57,0,0,1-1.52,1.52,1.54,1.54,0,0,1-1.55-1.52,1.51,1.51,0,0,1,1.55-1.54A1.54,1.54,0,0,1,16.91,44.35Z"/><path class="cls-2" d="M10.86,65.43a5.08,5.08,0,0,0,1.24-.66,2.84,2.84,0,0,1,1.56-.65c.06.2,0,.26-.5.75C13,65,12,66.09,11.82,66.17a5,5,0,0,0-1,.84c-.06.06-.44.34-.5.4s-.22.24-.26.26c-.2.2-1.18.9-1.34,1.08S8,70,7.8,70a2.78,2.78,0,0,1-1.2-.88c-.16-.28-.52-1.16-.52-1.16a1.54,1.54,0,0,1,0-.3,1.48,1.48,0,0,1,.24,0,.74.74,0,0,1,.38.16.58.58,0,0,0,.32.1,7.07,7.07,0,0,0,2.2-1.26,4.77,4.77,0,0,0,.14-1.46c0-.07.06-.57.06-.66,0-.85,0-1.85,0-2s0-.38-.12-.38-.44.1-.52.1-.62.08-.72.08a13.57,13.57,0,0,1-1.64-.36c-.1,0-.14-.08-.12-.2a13.41,13.41,0,0,1,1.52-.26c.2-.06,1.44-.5,1.54-.56a1,1,0,0,0,.08-.4c0-.12-.06-.68-.06-.8a19.2,19.2,0,0,0-.26-3,7.78,7.78,0,0,0-.88-.94c.1-.16.16-.28.58-.28a2.68,2.68,0,0,1,1.9.8,7.06,7.06,0,0,1,.64.42,1.57,1.57,0,0,1,.2.3c0,.1,0,.12-.14.18a4.07,4.07,0,0,1-.22.64c-.06.16-.26,2.24-.26,2.44a2.71,2.71,0,0,1,.6-.28c.48,0,1.48.06,1.48.78,0,.2-.06.24-.58.48a9.3,9.3,0,0,0-1.64.6c0,.12-.06.66-.06.76,0,.44,0,2.33,0,2.7Zm7.65-2.13c0,.06-.2.62-.22.72a5.73,5.73,0,0,1-.62,1.63.35.35,0,0,1-.26.1c-.26,0-.3-.26-.3-.42s0-.21.12-1c0-.28.2-2.24.24-2.66l-.06-.06-1.4.66a1.43,1.43,0,0,0-.3.22c0,.1,0,1.54,0,1.76,0,.88.1,2.57.6,2.87a5.8,5.8,0,0,0,2.1.52l1.7,0c.18,0,2.42-.18,2.64-.5a1.58,1.58,0,0,0,.3-.9c0-.12.26-.74.28-.87s.12-1,.14-1a.34.34,0,0,1,.22-.12c.36,0,.4.71.4.89a5,5,0,0,0,.56,2c.28.24.62.54.62.86,0,.68-1.68.94-1.82.94l-1.32,0c-.06,0-.26,0-.36,0s-.82-.06-1-.06L19,68.81l-2.62-.52a3.17,3.17,0,0,1-1.05-.62A2.57,2.57,0,0,1,14.6,66l-.18-2.29a3.75,3.75,0,0,1,0-.42c-.08,0-.4.2-.46.22-.12.2-.18.26-.3.26-.36,0-1.68-.6-1.68-.94,0-.14.16-.18.26-.18l.66,0c.24,0,.3,0,.94-.34s.6-.3.6-.52-.12-2.7-.16-2.88a8.1,8.1,0,0,0-.7-1.26l0-.06.32-.08c.66,0,.88,0,1.12.26.08.1.57.6.65.7s.42.36.48.44A4.52,4.52,0,0,1,16,60a4.14,4.14,0,0,0-.16,1.3c.22-.06,1.16-.48,1.36-.54l.38-.16c0-.12.1-1.64.1-1.7s0-.44,0-.52.08-1.7.08-2c0-1,0-1.12-.08-1.3s-.48-.73-.48-.77a.22.22,0,0,1,.14-.2,4,4,0,0,1,.56-.17c.58.09,2.22,1.4,2.22,1.88a5.41,5.41,0,0,1-.34.78c-.06.16-.5,2.68-.5,2.74a2.69,2.69,0,0,0,0,.38A3.09,3.09,0,0,0,20.27,59a1.61,1.61,0,0,1,.82-.7c.12.12,2.52,1.54,2.52,2.06,0,.12,0,.12-.28.24-.6.28-1.8,3.08-2.14,3.57-1,1.33-1.3,1.33-1.62,1.3-.24-.69-.28-.8-.46-1a1.73,1.73,0,0,1-.48-.71l0-.1c.14,0,.7.16.82.16a.5.5,0,0,0,.44-.22c0-.08.32-.68.34-.72a8.83,8.83,0,0,0,.42-2.48.49.49,0,0,0-.1-.34,5.24,5.24,0,0,0-1.34.46c-.24.12-.26.28-.34.66Z"/></g></g></svg>