<svg xmlns="http://www.w3.org/2000/svg" viewBox="0 0 36.89 84.03"><defs><style>.cls-1{fill:#7cac82;}.cls-2{fill:#595757;}</style></defs><title>資產 26</title><g id="圖層_2" data-name="圖層 2"><g id="手機直排"><path class="cls-1" d="M36.89,53.55A18.45,18.45,0,1,1,18.45,35.11,18.44,18.44,0,0,1,36.89,53.55Z"/><path class="cls-2" d="M17.05,4.06c0-.08.1-1,.1-1.11s-.1-.55-.1-.62a2.28,2.28,0,0,0-.31-1.11c-.07-.14-.45-.67-.5-.79a1.07,1.07,0,0,1,.31-.38L17,0c.14.1.16.1.5.12a5.48,5.48,0,0,1,.6.29,1.38,1.38,0,0,1,.79.53c.15.16.91.72,1.06.86.26.31.41.5.41.7a1.86,1.86,0,0,1-.41.84,31.18,31.18,0,0,0-1.27,3l-.63,2a2.56,2.56,0,0,0,0,.37c0,.67,1.32,2,1.63,2.25.12.12,2.35,2.33,2.42,2.38.6.45,3,2,3.75,2.47S28,17.14,29,17.76a2.1,2.1,0,0,1,.86.77c.19.12.27.22.27.31,0,.29-.8.36-.92.36-1.13,0-3.38-.26-3.91-.69l-.48-.39-1.49-1.44c-.05-.05-.14-.26-.19-.29A18.82,18.82,0,0,1,21.83,15c-.26-.24-1.1-1.2-1.51-1.63S17.94,10.46,17.56,10c-.39.57-1.83,3.26-2.16,3.79-.79,1.2-3.58,4.22-5.52,5a5.52,5.52,0,0,1-1.54.38c-.1,0-.24,0-.24-.16s.41-.41.48-.48.19-.15.84-.6c.22-.17,1.22-1.35,1.63-1.83,2-2.25,2.19-2.49,2.86-3.74a21.88,21.88,0,0,0,1.85-4c.07-.17.36-.89.41-1.06s.24-.65.26-.77Z"/><path class="cls-2" d="M17.29,25.06a4.16,4.16,0,0,0-1.1-2.64c-.26-.22-.26-.36-.26-.44,0-.4.19-.48,1.08-.48a4.37,4.37,0,0,1,2.11,1c.67.5.84.65.84.89,0,0-.34.84-.39,1a3.24,3.24,0,0,0-.16,1.3v.43l.88-.17,2.21-.19L24,25.49c.32-.22.36-.24.58-.24,1.25,0,2.93,1.2,2.93,1.63,0,.6-.65.6-1.27.6a2.24,2.24,0,0,1-.36-.14c-.72-.12-1.73-.29-2.24-.36a17.72,17.72,0,0,0-2-.1,1.18,1.18,0,0,0-.41.07V27A17,17,0,0,1,23,28.39a1.91,1.91,0,0,1,.15.58c0,.12-.89.89-1,1.08a34.36,34.36,0,0,1-2,3.72c-.07.12-.26.45-.5.79,0,.34,2,1.73,2.06,1.78.41.26,2.47,1.73,2.95,2l3.29,1.9c1.16.6,1.3.65,1.3,1,0,.17-.1.24-.26.31s-1.9.08-2.14.08a9.53,9.53,0,0,1-1.92-.34,34.62,34.62,0,0,1-3.46-2.81c-.33-.36-1.94-1.87-2.21-2.23s-.33-.43-.48-.43-.24.14-.4.38c-.87,1.11-4.95,3.51-5.19,3.6l-1.85.67a7.8,7.8,0,0,1-1.46.2c-.31,0-.34,0-.46-.15.05-.36.68-.57,1.11-.74.67-.43,1.34-.87,2-1.25a22.89,22.89,0,0,0,4.75-4.08c.05-.07.1-.12.1-.19,0-.31-.6-.87-1-1.25a6.29,6.29,0,0,1-.5-.63l-1.42-1.67a8.55,8.55,0,0,0-.72-.77c-.14-.1-.91-.34-1.05-.41v-.1a1.43,1.43,0,0,1,1-.31,4.85,4.85,0,0,1,1.57.65c.6.74,1.51,1.92,2.2,2.66.05.05.65.65.8.65.33,0,2.23-3.74,2.23-4.75,0-.24-.53-1.44-1-1.35l-2.69.53a28.71,28.71,0,0,0-3.6,1.06c-.09.05-.55.36-.65.41h-.12a6.36,6.36,0,0,1-2.66-1.08.58.58,0,0,1-.1-.56,6.49,6.49,0,0,1,1.16.1c.07,0,.45.1.55.1.45,0,5-1,6-1.13Z"/><path class="cls-2" d="M20.27,53.19A1.88,1.88,0,0,1,18.45,55a1.85,1.85,0,0,1-1.85-1.82,1.8,1.8,0,0,1,1.85-1.85A1.85,1.85,0,0,1,20.27,53.19Z"/><path class="cls-2" d="M27.83,77.79c.36.14.41.33.65,1.22s.26,1,.46,1.85a6.05,6.05,0,0,0,.59,1.39l.51.5a5.36,5.36,0,0,1,.07.56.74.74,0,0,1-.7.72,4.88,4.88,0,0,1-2.66-.94,6.56,6.56,0,0,1-1.58-1.49c-.82-.62-2.79-4.22-2.79-8.06,0-.36.05-2,.07-2.28L22.69,68a4.81,4.81,0,0,0,.08-.65c0-.09-.2-.55-.41-.55-.41,0-2.19.31-2.52.36s-1.2.34-1.39.38-.75.1-.87.12-2.61.65-2.73.7a3.32,3.32,0,0,1-1.68.26c0,.1.19.46.19.53s-.15.67-.22,1a1.87,1.87,0,0,0-.05.53c0,.45-.31,4.06-.43,4.63l-.41,2a14,14,0,0,1-1.85,4c-.67.82-1.92,2.21-2.47,2.21a.65.65,0,0,1-.21-.07l0-.12a9.84,9.84,0,0,1,.89-1.32,11,11,0,0,0,2-4.54,24.26,24.26,0,0,0,.77-5.42c0-2.21-.07-2.52-.69-3.67-.2-.34-.22-.36-.41-.7a.3.3,0,0,1-.1-.22c0-.09.05-.12.17-.21l.41,0a4.2,4.2,0,0,1,1.2.34,1.2,1.2,0,0,0,.48.34c.91-.2,4.9-1.11,5.71-1.25A25.17,25.17,0,0,0,22,65.83c.12-.09.6-.62.74-.62.87,0,3,1.8,3,2.37,0,.2,0,.22-.44.46a2.19,2.19,0,0,0-1.08,1.56A16.43,16.43,0,0,0,23.61,74,12,12,0,0,0,25.26,80a4.81,4.81,0,0,0,2.16,2c.34,0,.43-1.68.43-1.92s-.12-1.49-.12-1.73a3.31,3.31,0,0,1,0-.48Zm-13.37-.15-.91-3c0-.1-.07-.12-.14-.15v0l0-.24c.08,0,.1-.05.15-.05s.84.36,1,.36a14.12,14.12,0,0,0,2-.5,2.82,2.82,0,0,0-.24-1.16c-.07-.07-.36-.36-.43-.41s-1.25.13-1.44.13-.24,0-.24-.25.22-.33.84-.64a12.41,12.41,0,0,0,3.31-2.64c.15-.17.12-.27.08-.46.12-.12.16-.14.6-.22.62.36,1.94,1.13,1.94,1.76a.38.38,0,0,1-.38.38,3.45,3.45,0,0,0-1.92.55c-.12.07-1.08.58-1.25.63a.33.33,0,0,0-.22.24,2.64,2.64,0,0,1,1.23,1.22.52.52,0,0,0-.08.26c0,.12.53-.07.68-.12s.5-.52.6-.52c.76,0,2.16.86,2.16,1.51,0,.17,0,.19-.41.43a10.07,10.07,0,0,0-1,1.18c0,.48-.05.5-.48.67a9.58,9.58,0,0,0-2,.67,13.75,13.75,0,0,0-.21,1.39c0,.12-.12.75-.12.87a14.73,14.73,0,0,0,2.59-.75,2.34,2.34,0,0,0-.39-.91,2.59,2.59,0,0,1-.24-.55.38.38,0,0,1,.22-.1,6.58,6.58,0,0,1,1.92,1.4c.46.33,1,.69,1,2.16,0,.12,0,.64-.29.64-.57,0-1.27-1.12-1.41-1.36s-.29-.56-.41-.56-5,1.83-5.5,2.07c-.17.09-.79.6-.93.69a3.07,3.07,0,0,1-1.49-2.08,1.65,1.65,0,0,1,.07-.2,1.07,1.07,0,0,1,.65.12,4.33,4.33,0,0,0,.93.22,16.54,16.54,0,0,0,2.21-.53s.05-.31.07-.48.08-.53.08-.62,0-1,0-1.13c-.09,0-.5.1-.57.1-.34,0-.51.55-.6.91-.34,0-.41-.1-1-.67Zm.65-2.45a6.41,6.41,0,0,1,.53,1.52,2.21,2.21,0,0,0,.43.09,5.93,5.93,0,0,0,.65-.19,3.85,3.85,0,0,0,.05-.5c0-.12-.05-.65-.05-.75a2,2,0,0,0,0-.6c-.14,0-.77.22-.94.29s-.5,0-.57.07Zm3.12-.84a3.88,3.88,0,0,0-.14.89c0,.14-.05.84-.05,1s.31,0,.55-.1.38-.19.5-.79c0-.17.27-.82.29-1a2.57,2.57,0,0,0,0-.36A6,6,0,0,0,18.23,74.35Z"/></g></g></svg>