<svg xmlns="http://www.w3.org/2000/svg" viewBox="0 0 36.89 84.1"><defs><style>.cls-1{fill:#ed7839;}.cls-2{fill:#595757;}</style></defs><title>資產 22</title><g id="圖層_2" data-name="圖層 2"><g id="手機直排"><path class="cls-1" d="M36.89,53.55A18.45,18.45,0,1,1,18.45,35.11,18.44,18.44,0,0,1,36.89,53.55Z"/><path class="cls-2" d="M17.05,4.06c0-.08.1-1,.1-1.11s-.1-.55-.1-.62a2.28,2.28,0,0,0-.31-1.11c-.07-.14-.45-.67-.5-.79a1.07,1.07,0,0,1,.31-.38L17,0c.14.1.16.1.5.12a5.48,5.48,0,0,1,.6.29,1.38,1.38,0,0,1,.79.53c.15.16.91.72,1.06.86.26.31.41.5.41.7a1.86,1.86,0,0,1-.41.84,31.18,31.18,0,0,0-1.27,3l-.63,2a2.56,2.56,0,0,0,0,.37c0,.67,1.32,2,1.63,2.25.12.12,2.35,2.33,2.42,2.38.6.45,3,2,3.75,2.47S28,17.14,29,17.76a2.1,2.1,0,0,1,.86.77c.19.12.27.22.27.31,0,.29-.8.36-.92.36-1.13,0-3.38-.26-3.91-.69l-.48-.39-1.49-1.44c-.05-.05-.14-.26-.19-.29A18.82,18.82,0,0,1,21.83,15c-.26-.24-1.1-1.2-1.51-1.63S17.94,10.46,17.56,10c-.39.57-1.83,3.26-2.16,3.79-.79,1.2-3.58,4.22-5.52,5a5.52,5.52,0,0,1-1.54.38c-.1,0-.24,0-.24-.16s.41-.41.48-.48.19-.15.84-.6c.22-.17,1.22-1.35,1.63-1.83,2-2.25,2.19-2.49,2.86-3.74a21.88,21.88,0,0,0,1.85-4c.07-.17.36-.89.41-1.06s.24-.65.26-.77Z"/><path class="cls-2" d="M17.29,25.06a4.16,4.16,0,0,0-1.1-2.64c-.26-.22-.26-.36-.26-.44,0-.4.19-.48,1.08-.48a4.37,4.37,0,0,1,2.11,1c.67.5.84.65.84.89,0,0-.34.84-.39,1a3.24,3.24,0,0,0-.16,1.3v.43l.88-.17,2.21-.19L24,25.49c.32-.22.36-.24.58-.24,1.25,0,2.93,1.2,2.93,1.63,0,.6-.65.6-1.27.6a2.24,2.24,0,0,1-.36-.14c-.72-.12-1.73-.29-2.24-.36a17.72,17.72,0,0,0-2-.1,1.18,1.18,0,0,0-.41.07V27A17,17,0,0,1,23,28.39a1.91,1.91,0,0,1,.15.58c0,.12-.89.89-1,1.08a34.36,34.36,0,0,1-2,3.72c-.07.12-.26.45-.5.79,0,.34,2,1.73,2.06,1.78.41.26,2.47,1.73,2.95,2l3.29,1.9c1.16.6,1.3.65,1.3,1,0,.17-.1.24-.26.31s-1.9.08-2.14.08a9.53,9.53,0,0,1-1.92-.34,34.62,34.62,0,0,1-3.46-2.81c-.33-.36-1.94-1.87-2.21-2.23s-.33-.43-.48-.43-.24.14-.4.38c-.87,1.11-4.95,3.51-5.19,3.6l-1.85.67a7.8,7.8,0,0,1-1.46.2c-.31,0-.34,0-.46-.15.05-.36.68-.57,1.11-.74.67-.43,1.34-.87,2-1.25a22.89,22.89,0,0,0,4.75-4.08c.05-.07.1-.12.1-.19,0-.31-.6-.87-1-1.25a6.29,6.29,0,0,1-.5-.63l-1.42-1.67a8.55,8.55,0,0,0-.72-.77c-.14-.1-.91-.34-1.05-.41v-.1a1.43,1.43,0,0,1,1-.31,4.85,4.85,0,0,1,1.57.65c.6.74,1.51,1.92,2.2,2.66.05.05.65.65.8.65.33,0,2.23-3.74,2.23-4.75,0-.24-.53-1.44-1-1.35l-2.69.53a28.71,28.71,0,0,0-3.6,1.06c-.09.05-.55.36-.65.41h-.12a6.36,6.36,0,0,1-2.66-1.08.58.58,0,0,1-.1-.56,6.49,6.49,0,0,1,1.16.1c.07,0,.45.1.55.1.45,0,5-1,6-1.13Z"/><path class="cls-2" d="M20.27,53.19A1.88,1.88,0,0,1,18.45,55a1.85,1.85,0,0,1-1.85-1.82,1.8,1.8,0,0,1,1.85-1.85A1.85,1.85,0,0,1,20.27,53.19Z"/><path class="cls-2" d="M15.9,77.52A12.09,12.09,0,0,0,16.84,75a2.41,2.41,0,0,0,.17-.62l.28-2,.15-2.09A15.4,15.4,0,0,0,17.22,67a5,5,0,0,0-.6-1.37c-.31-.28-.33-.31-.38-.5a2.16,2.16,0,0,1,1-.43,12.12,12.12,0,0,1,1.8.65c.93.74,1.05.84,1.05,1.08a6.41,6.41,0,0,1-.45.81,8,8,0,0,0-.46,2.38c0,.31-.26,1.73-.26,2a14.49,14.49,0,0,1-.17,1.68c0,.15-.15.92-.15,1s.51,1.06.6,1.25.65.67.75.79l1,1.18c.26.31,1.65,1.49,1.92,1.73s.91.74,1,.86A9.79,9.79,0,0,0,26,81.86c1.61,1,2,1.68,2,1.83,0,.38-.44.41-.75.41-2.78,0-3.33-.63-4.46-2.21l-3.6-5.07c-.65-.91-.67-.93-.89-1-.12.2-.38,1.16-.46,1.32l-.81,1.9a11.94,11.94,0,0,1-2.88,3.38c-.07,0-.43.25-.51.27s-.45.33-.52.38c-.39.19-.82.36-1.23.53a10.34,10.34,0,0,1-1.73.43A.4.4,0,0,1,10,84c.05-.19.09-.22.57-.46.1,0,.46-.38.56-.43s1.89-1.61,2-1.75,1.61-1.9,1.63-2Zm-2.81-8.47c.36.17.36.24.41.53a3.12,3.12,0,0,1,.14.5,13.26,13.26,0,0,1,.2,1.54,3.58,3.58,0,0,1-.7,1.89c-1,.94-1.1,1-1.63,1-.19-.12-.38-.24-.38-.51,0-.09.21-1.56.21-1.65,0-.6.05-.65.6-1.23a7.57,7.57,0,0,0,1.06-2Zm11.26-.12.36-.05c.22,0,.26,0,.55.43a1.34,1.34,0,0,0,.24.12c.12.1.94,1,.94,1.35,0,.14-.07.19-.75.5,0,0-2,1.42-2.37,1.66a8.06,8.06,0,0,1-2,.84.2.2,0,0,1-.2-.2s1.23-1.6,1.44-1.92a10.23,10.23,0,0,0,1.11-2c0-.08-.19-.32-.19-.39s0-.09.24-.38A1.79,1.79,0,0,1,24.35,68.93Z"/></g></g></svg>