<svg xmlns="http://www.w3.org/2000/svg" viewBox="0 0 36.89 85.08"><defs><style>.cls-1{fill:#5c9e97;}.cls-2{fill:#595757;}</style></defs><title>資產 28</title><g id="圖層_2" data-name="圖層 2"><g id="手機直排"><path class="cls-1" d="M36.89,53.14A18.45,18.45,0,1,1,18.45,34.7,18.45,18.45,0,0,1,36.89,53.14Z"/><path class="cls-2" d="M11.6,14.38c0,.91,0,1,.12,1.17.44,0,2.07-.24,2.62-.33l2.19-.36c.14,0,.86-.07,1-.12a.28.28,0,0,0,.08-.15c0-.09-.15-.81-.15-1V12.5c0-.16-.07-1-.07-1.08,0-.33,0-1.82,0-2.11s0-1,0-1.15l0-2.3c0-.19-.07-1.11-.07-1.28A11.32,11.32,0,0,0,17,2C16.91,1.68,15.83.41,15.83.26A.26.26,0,0,1,16.07,0a7,7,0,0,1,2.16.24A6.71,6.71,0,0,1,20.17,2c-.07.16-.4.81-.45,1s-.12.81-.17,1.08S19.5,5,19.5,5.11V7.66c0,.76-.21,4.13-.21,4.82a6.78,6.78,0,0,1-.15,2c.24,0,1.27,0,1.49,0l2.21,0a17.57,17.57,0,0,0,1.92,0,22.43,22.43,0,0,0,.48-3.69,4.17,4.17,0,0,0-.17-1.23,8.09,8.09,0,0,1-.43-1,.49.49,0,0,1,.5-.43,4.19,4.19,0,0,1,2.95,2.42c0,.1,0,.15-.45.68a1.83,1.83,0,0,0-.34,1v.26L27,14.57c-.12.86-.82,3.41-1.78,3.41-.31,0-.33-.07-.5-.63a2.89,2.89,0,0,1-.19-.74c0-.07.07-.82.07-.91-.46-.24-.72-.39-3.58-.39a3.52,3.52,0,0,0-1,.15c-.17,0-1.08.12-1.25.14s-.84.19-1,.19-1.25.1-1.44.15c-.46.12-2.69.74-3.07.91-.08,0-1.25.7-1.37.82s-.44.45-.53.55a3.24,3.24,0,0,1-.48.21l-.12,0a7.41,7.41,0,0,1-1.37-2.28v-.36a1.79,1.79,0,0,0,.17-.6A4,4,0,0,0,10,13.39a7.08,7.08,0,0,0-.41-2.88,5.73,5.73,0,0,0-1.17-1.2.33.33,0,0,1-.12-.24c0-.14.14-.19.24-.19s1,.24,1,.24.82.41.87.46.69.5.81.62c.34.31.65.63.65.87s0,.16-.24.62a1.57,1.57,0,0,0-.1.58Z"/><path class="cls-2" d="M14.29,31.42c.15-.1.87-.34,1-.44a8.91,8.91,0,0,1,1-.07c.34,0,1,0,1,.67,0,.22-.07.25-.77.44a20.83,20.83,0,0,0-2.38.65c0,.09-.19,1.67-.19,1.79A2.08,2.08,0,0,0,14,35c.62-.15,3.48-1.23,3.94-1.23.14,0,.19.05.26.22-.22.24-.29.28-1.06.64-.33.15-1.94.84-2.09.94-.5.24-1,.51-1.46.79-.12,0-3.31,1.42-3.45,1.56-.53.58-.58.63-.87.63s-.26-.08-.82-.75c-.09-.09-.64-.48-.72-.6a1.27,1.27,0,0,1-.21-.57c0-.15.19-.22.29-.22s.72.31.84.31A10.79,10.79,0,0,0,11.44,36c.09,0,.91-.31,1-.38s.09-.1.17-.17a2.2,2.2,0,0,0,0-.36s0-1.39,0-1.44V33l-.1-.07a9.3,9.3,0,0,1-1.1.31c-.12,0-.58.22-.68.22-.4,0-1.41-.41-1.41-.82,0-.14.17-.22.26-.22s.48.08.56.08a8.37,8.37,0,0,0,1.12-.15c.1,0,1-.29,1.18-.33l.09-.08c0-.11.08-2.08.08-2.2s-.05-.22-.17-.22a10,10,0,0,0-1.15.43c-.24.1-.32.15-.39.65-.53.17-1.44-1.34-1.58-2.09-.27-1.29-.84-3.89-1.59-4.94-.07-.12-.57-.6-.57-.75a.2.2,0,0,1,.19-.19,5.06,5.06,0,0,1,1.87.87,38.88,38.88,0,0,1,5.62-1.2c.5-.08.67-.22,1.42-.77a.56.56,0,0,1,.38-.15.8.8,0,0,1,.21.05,14,14,0,0,0,1.76,1.23c.38.24.81.67.81.93,0,.07-.09.17-.14.22A10.91,10.91,0,0,0,18.08,26,18.54,18.54,0,0,1,16.5,29a.81.81,0,0,1-.48.27c-.07,0-.45-.22-.53-.22s-1.2.07-1.39.05c0,.21,0,1.13,0,1.41a6.29,6.29,0,0,0,.1.92Zm-2-5.88a3.33,3.33,0,0,0-.39-1.42c-.1-.29-.19-.41-.81-.41-.05,0-.85.19-1,.22a.25.25,0,0,0-.17.19,1.19,1.19,0,0,0,.12.29c.07.36.26,1.27.36,1.56C10.88,26,11,26,12.33,25.54Zm.23,3a12.6,12.6,0,0,0-.09-1.94c-.17,0-1,.26-1.18.26l-.41-.05a.8.8,0,0,0-.21.05c0,.22.14,1.15.14,1.34A1.78,1.78,0,0,0,11,29,4.29,4.29,0,0,0,12.56,28.56Zm4.09-4.78c.12-.72-.36-.91-.87-.91-.17,0-1,.15-1.13.17a3,3,0,0,0-1.29.31c.17.15,1.08.7,1.08.89a5.24,5.24,0,0,0-.12.82,2,2,0,0,1,.48,0,.61.61,0,0,1,.38.09c0,.08.1.36.1.44,0,.36-.58.57-1.11.64,0,.34-.07.94-.07,1.61a2.27,2.27,0,0,0,0,.46,2.46,2.46,0,0,0,.33.07c.12,0,.6-.07.7-.07.19-.19.26-.36.74-1.92,0-.15.53-1.75.53-1.8Zm6.69,4.13a8.26,8.26,0,0,0-1.73-1.82c-.07-.07-.26-.43-.31-.48s-.55-.72-.65-.84l0-.19c.38,0,2,.64,2.33.64.62,0,1.6-2.4,1.68-2.68a2.6,2.6,0,0,0-1.06.16,9.63,9.63,0,0,1-2.23.8,4.93,4.93,0,0,1-1.71-1,.35.35,0,0,1,.08-.22c.19,0,1,.12,1.17.12.91,0,3.31-.48,3.84-1a2.79,2.79,0,0,0,.24-.45l.39-.07a7.23,7.23,0,0,1,2,1.39c.19.17.26.24.26.5,0,.51-.12.55-1.25.84-.09.07-.52.34-.6.41s-.45.38-.55.43A12.66,12.66,0,0,1,24,25.68v.12c.31.34.33.5.67,1.9a.15.15,0,0,0,.12,0,16.5,16.5,0,0,0,1.63-.26c.31-.62.7-.62.77-.62A21.24,21.24,0,0,1,29,28.18c.21.14.69.48.69.76,0,.12-.26.56-1.17.72-.12,0-1.23.87-1.47,1a7.6,7.6,0,0,1-2,1.05l-.1-.14a3,3,0,0,1,.36-.67,13.56,13.56,0,0,0,1.13-2.57l-.1-.05a7.27,7.27,0,0,0-1.82.19A6.62,6.62,0,0,0,23,29c-.05,0-.57.12-.65.14s-.14.17-.19.22a4.09,4.09,0,0,1,1.39.58c.2.14.63.43.84.62a.59.59,0,0,1,.1.38c0,.08-.14,1.25-.14,1.42s0,1.42,0,1.59.12,1.08.12,1.27c0,.41.07,2.25.07,2.61a15.26,15.26,0,0,1-.14,1.78c-.05.31-.53,1.56-.6,1.82-.1.05-.38.36-.48.39a1.45,1.45,0,0,1-.53.09c-.21-.16-.24-.21-.38-.62a3.68,3.68,0,0,0-1.59-1.56s-1.65-1.18-1.72-1.87l.07-.1a9.9,9.9,0,0,1,1.29.51,15.19,15.19,0,0,0,2.16.5c.39-.39.41-3,.41-3.55,0-.15,0-4-.5-4.52-.15-.16-.72-.86-.84-1l-.15-.17a7.57,7.57,0,0,0-1.75.77c-.17.12-.29.24-.38.24-.51,0-1.83-1-1.83-1.46a.29.29,0,0,1,.22-.27c.05,0,.77.34.89.34a8.5,8.5,0,0,0,1.82-.34c.43-.17,2.45-.72,2.86-.86Z"/><path class="cls-2" d="M20.27,52.78a1.88,1.88,0,0,1-1.82,1.82,1.85,1.85,0,0,1-1.85-1.82,1.8,1.8,0,0,1,1.85-1.85A1.85,1.85,0,0,1,20.27,52.78Z"/><path class="cls-2" d="M13.76,72.17a21,21,0,0,1-2.08.79l-.7.31c-.1.12-.22.24-.65.24-.12,0-1.77-1.13-1.89-1.75a.68.68,0,0,1,0-.12,1.53,1.53,0,0,1,.29-.07c.07,0,.12,0,.58.21a1.72,1.72,0,0,0,.69.15,7.35,7.35,0,0,0,2.11-.55c.15,0,1-.41,1.09-.46a5.06,5.06,0,0,1,.62-.79,1,1,0,0,1,.31,0c.74,0,2.9,1.7,2.9,2.16s-.12.65-.79.94S15.08,74.5,14.84,75c0,.07-1.6,2.28-1.75,2.45s-.91,1.13-1.08,1.3-1.1,1-1.29,1.1-.58.39-.87.6a8.12,8.12,0,0,1-2,.77.25.25,0,0,1-.15-.24c0-.22,1.2-1.22,1.44-1.47a21.18,21.18,0,0,0,2.38-2.73c.6-.82,2.52-4,2.47-4.59ZM17.68,77l.07-2.23-.07-2.3c0-.46,0-.65,0-1.08,0-.24-.09-1.32-.09-1.54,0-.77,0-4.1-.48-5.06a2.74,2.74,0,0,0-.65-.8s-.24-.26-.29-.31l0-.07c.14,0,.79-.07.91-.07a2.4,2.4,0,0,1,1.2.29l.65.6c.36.21,1.32.91,1.32,1.41A6.43,6.43,0,0,1,19.69,67a14.41,14.41,0,0,0-.36,3.63c0,.14-.09.72-.09.84s.07.91.09,1a1.79,1.79,0,0,0,.17.32,7.07,7.07,0,0,0,2.28-1.61c.65-.46,2.47-2.16,2.47-2.76,0-.12-.07-.2-.24-.46a.34.34,0,0,1,0-.14.61.61,0,0,1,.41-.17,2.56,2.56,0,0,1,.91.29c.22.14,1.51,1.29,1.51,1.84,0,.34-.19.39-.74.48,0,0-.46.17-.53.2-.26.09-1.34.93-1.58,1S21.49,72.84,21.23,73s-1,.38-1.15.46a2.33,2.33,0,0,0,1.05,1.15l.48.48,1.78,1.44c.14.12.86.53,1,.62s1.16.82,1.35.94,2.16,1.34,2.37,1.46c.44.17,1.2.46,1.2.94,0,.07,0,.14-.16.19-.34,0-.89.1-1.16.12l-1.17,0c-.19,0-1.11-.17-1.27-.17a16.9,16.9,0,0,1-2.12-1.9c-.07,0-.86-.86-.88-.88-.41-.51-.46-.58-.77-.75a25,25,0,0,0-2.11-2.4.49.49,0,0,0-.39-.07c-.05.53-.05,2.59-.05,3.24s.15,3.41.15,4c0,1.61-.84,3.31-1.44,3.31-.43,0-.53-.31-.65-.69s-.7-1.23-2-2.31a10.9,10.9,0,0,1-1.44-1.77c0-.1.09-.27.26-.27a4.58,4.58,0,0,1,.63.31,8.12,8.12,0,0,0,2.69.77,4.12,4.12,0,0,0,.26-1.44c0-.24.05-1,.05-1.2Z"/></g></g></svg>