<svg xmlns="http://www.w3.org/2000/svg" viewBox="0 0 30.76 69.61"><defs><style>.cls-1{fill:#edd037;}.cls-2{fill:#595757;}</style></defs><g id="圖層_2" data-name="圖層 2"><g id="妖怪資料卡"><path class="cls-1" d="M30.76,44.32A15.38,15.38,0,1,1,15.38,28.94,15.38,15.38,0,0,1,30.76,44.32Z"/><path class="cls-2" d="M9.68,12c0,.76,0,.86.1,1,.36,0,1.72-.2,2.18-.28l1.82-.3c.12,0,.73-.06.85-.1s.06-.08.06-.12-.13-.68-.13-.8v-.94c0-.14-.05-.84-.05-.9,0-.28,0-1.52,0-1.76s0-.84,0-1l0-1.93c0-.16-.06-.92-.06-1.06a9.43,9.43,0,0,0-.21-2.14c-.08-.28-1-1.34-1-1.46A.22.22,0,0,1,13.4,0a5.91,5.91,0,0,1,1.81.2,5.71,5.71,0,0,1,1.62,1.48c-.06.14-.34.68-.38.8s-.1.68-.14.9,0,.76,0,.89V6.39c0,.64-.18,3.44-.18,4A5.9,5.9,0,0,1,16,12.07c.2,0,1.06,0,1.24,0l1.84,0a14.23,14.23,0,0,0,1.6,0,18.79,18.79,0,0,0,.4-3.08,3.39,3.39,0,0,0-.14-1,7,7,0,0,1-.36-.8A.42.42,0,0,1,21,6.75a3.51,3.51,0,0,1,2.46,2c0,.08,0,.12-.38.56a1.57,1.57,0,0,0-.28.82v.22l-.26,1.78c-.1.72-.68,2.85-1.48,2.85-.26,0-.28-.06-.42-.53a2.51,2.51,0,0,1-.16-.62c0-.06.06-.68.06-.76-.38-.2-.6-.32-3-.32a3.08,3.08,0,0,0-.84.12c-.14,0-.9.1-1,.12s-.7.16-.8.16-1,.08-1.21.12c-.38.1-2.24.62-2.56.76-.06,0-1,.58-1.14.68l-.44.47a4.1,4.1,0,0,1-.4.18l-.1,0a6.21,6.21,0,0,1-1.14-1.91v-.3a1.43,1.43,0,0,0,.14-.5,3.34,3.34,0,0,0,.36-1.48A5.88,5.88,0,0,0,8,8.77a4.61,4.61,0,0,0-1-1,.31.31,0,0,1-.1-.2c0-.12.12-.16.2-.16s.82.2.88.2S8.7,8,8.74,8s.58.42.68.52c.28.26.54.52.54.72s0,.14-.2.52a1.27,1.27,0,0,0-.08.48Z"/><path class="cls-2" d="M11.92,26.2c.12-.08.72-.28.82-.36a6.22,6.22,0,0,1,.86-.06c.29,0,.85,0,.85.56,0,.18-.06.2-.64.36a18.48,18.48,0,0,0-2,.54c0,.08-.16,1.4-.16,1.5a1.74,1.74,0,0,0,0,.4c.52-.12,2.91-1,3.29-1,.12,0,.16,0,.22.18-.18.2-.24.24-.89.54-.27.12-1.62.7-1.74.78a12.09,12.09,0,0,0-1.22.67c-.1,0-2.76,1.17-2.88,1.3-.44.48-.48.52-.72.52s-.22-.06-.68-.62a5.78,5.78,0,0,1-.6-.51,1,1,0,0,1-.18-.48c0-.12.16-.18.24-.18s.6.26.7.26a8.85,8.85,0,0,0,2.3-.6c.08,0,.76-.26.86-.32a.9.9,0,0,0,.14-.14,1.54,1.54,0,0,0,0-.3s0-1.16,0-1.2v-.5l-.08-.06a6.62,6.62,0,0,1-.92.26c-.1,0-.48.18-.56.18-.34,0-1.18-.34-1.18-.68,0-.12.14-.18.22-.18s.4.06.46.06A7.2,7.2,0,0,0,9.42,27l1-.28.08-.06c0-.1.06-1.74.06-1.84s0-.18-.14-.18a9.36,9.36,0,0,0-1,.36c-.2.08-.26.12-.32.54-.44.14-1.2-1.12-1.32-1.74a14.36,14.36,0,0,0-1.32-4.13c-.06-.1-.48-.5-.48-.62a.17.17,0,0,1,.16-.16,4.25,4.25,0,0,1,1.56.72,34.09,34.09,0,0,1,4.68-1c.42-.06.56-.18,1.18-.64a.47.47,0,0,1,.32-.12.53.53,0,0,1,.18,0,12.16,12.16,0,0,0,1.47,1c.32.2.68.56.68.78,0,.06-.08.14-.12.18a9,9,0,0,0-1,1.87,15.76,15.76,0,0,1-1.33,2.46.67.67,0,0,1-.4.22c-.06,0-.38-.18-.44-.18s-1,.06-1.16,0c0,.18,0,.94,0,1.18a5.47,5.47,0,0,0,.08.76Zm-1.64-4.91c0-.25,0-.43-.32-1.17-.08-.24-.16-.35-.68-.35L8.44,20a.18.18,0,0,0-.14.16,2.08,2.08,0,0,0,.1.24c.06.29.22,1.06.3,1.3C9.08,21.72,9.14,21.7,10.28,21.29Zm.2,2.53a11,11,0,0,0-.08-1.62c-.14,0-.84.22-1,.22l-.34,0a.58.58,0,0,0-.18,0c0,.18.12,1,.12,1.12a1.41,1.41,0,0,0,.14.62A3.56,3.56,0,0,0,10.48,23.82Zm3.41-4c.09-.6-.31-.76-.73-.76-.14,0-.8.12-.94.14a2.47,2.47,0,0,0-1.08.26c.14.12.9.58.9.74a4.66,4.66,0,0,0-.1.68,3.67,3.67,0,0,1,.4,0,.48.48,0,0,1,.32.08c0,.06.08.3.08.35,0,.31-.48.49-.92.55,0,.28-.06.78-.06,1.34a2.3,2.3,0,0,0,0,.38,1.77,1.77,0,0,0,.28.06c.1,0,.5-.06.58-.06.16-.16.22-.3.62-1.6,0-.12.44-1.47.44-1.5Zm5.58,3.45A6.89,6.89,0,0,0,18,21.76c-.06-.06-.22-.36-.26-.4s-.46-.6-.54-.71l0-.16c.32,0,1.66.55,1.94.55.52,0,1.34-2,1.4-2.25a2.09,2.09,0,0,0-.88.14,8.27,8.27,0,0,1-1.86.66,4,4,0,0,1-1.42-.84.31.31,0,0,1,.06-.18c.16,0,.84.1,1,.1a7.28,7.28,0,0,0,3.2-.84,3.48,3.48,0,0,0,.2-.38l.32-.06a6.14,6.14,0,0,1,1.66,1.16.45.45,0,0,1,.22.42c0,.42-.1.46-1,.7l-.5.34c-.08,0-.38.32-.46.37a11.76,11.76,0,0,1-1.08,1v.1c.26.28.28.42.56,1.58a.12.12,0,0,0,.1,0A13.6,13.6,0,0,0,22,22.92c.26-.52.58-.52.64-.52a17.53,17.53,0,0,1,1.5,1.1c.18.12.58.4.58.64s-.22.46-1,.6c-.1,0-1,.72-1.22.86a6.46,6.46,0,0,1-1.68.88l-.08-.12a2.43,2.43,0,0,1,.3-.56A11.66,11.66,0,0,0,22,23.66l-.08,0a6.14,6.14,0,0,0-1.52.16,5.2,5.2,0,0,0-1.24.44l-.54.12s-.12.14-.16.18a3.58,3.58,0,0,1,1.16.48c.16.12.52.36.7.52a.55.55,0,0,1,.08.32c0,.06-.12,1-.12,1.18s0,1.18,0,1.32.1.9.1,1.06c0,.34.06,1.89.06,2.19a13.65,13.65,0,0,1-.12,1.48c0,.26-.44,1.3-.5,1.52-.08,0-.32.3-.4.32A1.23,1.23,0,0,1,19,35c-.18-.14-.2-.18-.32-.52a3.07,3.07,0,0,0-1.32-1.3s-1.38-1-1.44-1.56l.06-.08A7.34,7.34,0,0,1,17,32a11.86,11.86,0,0,0,1.8.42c.32-.32.34-2.47.34-3,0-.12,0-3.3-.42-3.76-.12-.14-.6-.72-.7-.82l-.12-.14a6,6,0,0,0-1.46.64c-.14.1-.24.2-.32.2-.42,0-1.52-.84-1.52-1.22a.24.24,0,0,1,.18-.22s.64.28.74.28a7.44,7.44,0,0,0,1.52-.28c.36-.14,2-.6,2.38-.72Z"/><path class="cls-2" d="M16.91,44a1.57,1.57,0,0,1-1.52,1.52A1.54,1.54,0,0,1,13.84,44a1.51,1.51,0,0,1,1.55-1.54A1.54,1.54,0,0,1,16.91,44Z"/><path class="cls-2" d="M10.86,65.09a5.08,5.08,0,0,0,1.24-.66,2.75,2.75,0,0,1,1.56-.64c.06.19,0,.25-.5.74-.18.16-1.18,1.22-1.34,1.3a5,5,0,0,0-1,.84c-.06.06-.44.34-.5.4s-.22.24-.26.26c-.2.2-1.18.9-1.34,1.08s-.7,1.2-.92,1.2a2.78,2.78,0,0,1-1.2-.88c-.16-.28-.52-1.16-.52-1.16a1.54,1.54,0,0,1,0-.3,1.48,1.48,0,0,1,.24,0,.74.74,0,0,1,.38.16.58.58,0,0,0,.32.1,7.07,7.07,0,0,0,2.2-1.26,4.77,4.77,0,0,0,.14-1.46c0-.06.06-.56.06-.66,0-.85,0-1.85,0-2s0-.38-.12-.38-.44.1-.52.1-.62.08-.72.08a13.57,13.57,0,0,1-1.64-.36c-.1,0-.14-.08-.12-.2a13.41,13.41,0,0,1,1.52-.26c.2-.06,1.44-.5,1.54-.56a1,1,0,0,0,.08-.4c0-.12-.06-.68-.06-.8a19.2,19.2,0,0,0-.26-3,7.78,7.78,0,0,0-.88-.94c.1-.16.16-.28.58-.28a2.68,2.68,0,0,1,1.9.8,7.06,7.06,0,0,1,.64.42,1.57,1.57,0,0,1,.2.3c0,.1,0,.12-.14.18a4.07,4.07,0,0,1-.22.64c-.06.16-.26,2.24-.26,2.44a2.71,2.71,0,0,1,.6-.28c.48,0,1.48.06,1.48.78,0,.2-.06.24-.58.48a9.3,9.3,0,0,0-1.64.6c0,.12-.06.66-.06.76,0,.44,0,2.33,0,2.7ZM18.51,63c0,.06-.2.62-.22.72a5.6,5.6,0,0,1-.62,1.63.35.35,0,0,1-.26.1c-.26,0-.3-.26-.3-.42s0-.2.12-1c0-.27.2-2.24.24-2.66l-.06-.06-1.4.66a1.43,1.43,0,0,0-.3.22c0,.1,0,1.54,0,1.76,0,.89.1,2.57.6,2.87a5.8,5.8,0,0,0,2.1.52l1.7,0c.18,0,2.42-.18,2.64-.5a1.58,1.58,0,0,0,.3-.9c0-.12.26-.74.28-.87s.12-1,.14-1a.34.34,0,0,1,.22-.12c.36,0,.41.71.41.89a4.72,4.72,0,0,0,.56,2c.27.24.62.54.62.86,0,.68-1.69.94-1.83.94l-1.32,0c-.06,0-.26,0-.36,0s-.82-.06-1-.06L19,68.47,16.37,68a3,3,0,0,1-1-.62,2.53,2.53,0,0,1-.72-1.72l-.18-2.29a2.51,2.51,0,0,1,0-.42c-.08,0-.4.2-.46.22-.12.2-.18.26-.3.26-.36,0-1.68-.6-1.68-.94,0-.14.16-.18.26-.18l.66,0c.24,0,.3,0,.94-.34s.61-.3.61-.52-.12-2.7-.17-2.88a8.1,8.1,0,0,0-.7-1.26l0-.06.32-.08c.66,0,.89,0,1.13.26.08.1.56.6.64.7s.42.36.48.44a4.52,4.52,0,0,1-.2,1.06,4.14,4.14,0,0,0-.16,1.3c.22-.06,1.16-.48,1.36-.54l.38-.16c0-.12.1-1.64.1-1.7s0-.44,0-.52.08-1.7.08-2c0-1,0-1.12-.08-1.3s-.48-.72-.48-.77a.22.22,0,0,1,.14-.2,4,4,0,0,1,.56-.17c.58.09,2.22,1.4,2.22,1.88a5.41,5.41,0,0,1-.34.78c-.06.16-.5,2.68-.5,2.74a2.69,2.69,0,0,0,0,.38,3.09,3.09,0,0,0,1.06-.62,1.61,1.61,0,0,1,.82-.7c.12.12,2.52,1.54,2.52,2.06,0,.12,0,.12-.28.24-.6.28-1.8,3.08-2.14,3.57-1,1.34-1.3,1.34-1.62,1.3-.24-.69-.28-.8-.46-1a1.73,1.73,0,0,1-.48-.71l0-.1c.14,0,.7.16.82.16a.5.5,0,0,0,.44-.22c0-.08.32-.68.34-.72a8.83,8.83,0,0,0,.42-2.48.49.49,0,0,0-.1-.34,5.24,5.24,0,0,0-1.34.46c-.24.12-.26.28-.34.66Z"/></g></g></svg>