<svg xmlns="http://www.w3.org/2000/svg" viewBox="0 0 36.89 83.62"><defs><style>.cls-1{fill:#7cac82;}.cls-2{fill:#595757;}</style></defs><title>資產 23</title><g id="圖層_2" data-name="圖層 2"><g id="手機直排"><path class="cls-1" d="M36.89,53.14A18.45,18.45,0,1,1,18.45,34.7,18.45,18.45,0,0,1,36.89,53.14Z"/><path class="cls-2" d="M11.61,14.38c0,.91,0,1,.12,1.17.43,0,2.06-.24,2.61-.33l2.19-.36c.14,0,.86-.07,1-.12a.28.28,0,0,0,.08-.15c0-.09-.15-.81-.15-1V12.5c0-.16-.07-1-.07-1.08,0-.33,0-1.82,0-2.11s0-1,0-1.15l0-2.3c0-.19-.07-1.11-.07-1.28A11.78,11.78,0,0,0,17,2c-.1-.34-1.18-1.61-1.18-1.76A.26.26,0,0,1,16.07,0a7,7,0,0,1,2.16.24A6.71,6.71,0,0,1,20.17,2c-.07.16-.4.81-.45,1s-.12.81-.17,1.08S19.5,5,19.5,5.11V7.66c0,.76-.21,4.13-.21,4.82a6.78,6.78,0,0,1-.15,2c.24,0,1.27,0,1.49,0l2.21,0a17.57,17.57,0,0,0,1.92,0,22.43,22.43,0,0,0,.48-3.69,4.17,4.17,0,0,0-.17-1.23,8.09,8.09,0,0,1-.43-1,.49.49,0,0,1,.5-.43,4.19,4.19,0,0,1,2.95,2.42c0,.1,0,.15-.45.68a1.83,1.83,0,0,0-.34,1v.26L27,14.57c-.12.86-.82,3.41-1.78,3.41-.31,0-.33-.07-.5-.63a2.89,2.89,0,0,1-.19-.74c0-.07.07-.82.07-.91-.46-.24-.72-.39-3.58-.39a3.52,3.52,0,0,0-1,.15c-.17,0-1.08.12-1.25.14s-.84.19-1,.19-1.25.1-1.44.15c-.46.12-2.69.74-3.07.91-.08,0-1.25.7-1.37.82s-.44.45-.53.55a2.83,2.83,0,0,1-.48.21l-.12,0a7.41,7.41,0,0,1-1.37-2.28v-.36a1.79,1.79,0,0,0,.17-.6A4,4,0,0,0,10,13.39a7.08,7.08,0,0,0-.41-2.88,5.73,5.73,0,0,0-1.17-1.2.33.33,0,0,1-.12-.24c0-.14.14-.19.24-.19s1,.24,1,.24.82.41.87.46.69.5.81.62c.34.31.65.63.65.87s0,.16-.24.62a1.57,1.57,0,0,0-.09.58Z"/><path class="cls-2" d="M14.29,31.42c.15-.1.87-.34,1-.44a8.91,8.91,0,0,1,1-.07c.34,0,1,0,1,.67,0,.22-.07.25-.77.44a20.83,20.83,0,0,0-2.38.65c0,.09-.19,1.67-.19,1.79A2.08,2.08,0,0,0,14,35c.62-.15,3.48-1.23,3.94-1.23.14,0,.19.05.26.22-.22.24-.29.28-1.06.64-.33.15-1.94.84-2.08.94-.51.24-1,.51-1.47.79-.12,0-3.31,1.42-3.45,1.56-.53.58-.58.63-.87.63s-.26-.08-.82-.75a8,8,0,0,1-.71-.6,1.21,1.21,0,0,1-.22-.57c0-.15.19-.22.29-.22s.72.31.84.31A10.68,10.68,0,0,0,11.44,36c.09,0,.91-.31,1-.38s.09-.1.17-.17a2.23,2.23,0,0,0,0-.36s0-1.39,0-1.44V33l-.1-.07a9.3,9.3,0,0,1-1.1.31c-.12,0-.58.22-.67.22-.41,0-1.42-.41-1.42-.82,0-.14.17-.22.26-.22s.48.08.56.08a8.37,8.37,0,0,0,1.12-.15c.1,0,1-.29,1.18-.33l.09-.08c0-.11.08-2.08.08-2.2s-.05-.22-.17-.22a10,10,0,0,0-1.15.43c-.24.1-.31.15-.39.65-.53.17-1.44-1.34-1.58-2.09a17,17,0,0,0-1.58-4.94c-.08-.12-.58-.6-.58-.75a.2.2,0,0,1,.19-.19,5,5,0,0,1,1.87.87,39.27,39.27,0,0,1,5.62-1.2c.5-.08.67-.22,1.42-.77a.56.56,0,0,1,.38-.15,1,1,0,0,1,.22.05,13.23,13.23,0,0,0,1.75,1.23c.38.24.81.67.81.93,0,.07-.09.17-.14.22A10.25,10.25,0,0,0,18.09,26,18.55,18.55,0,0,1,16.5,29a.81.81,0,0,1-.48.27c-.07,0-.45-.22-.53-.22s-1.2.07-1.39.05c0,.21,0,1.13,0,1.41a6.29,6.29,0,0,0,.1.92Zm-2-5.88a3.33,3.33,0,0,0-.39-1.42c-.09-.29-.19-.41-.81-.41-.05,0-.85.19-1,.22a.25.25,0,0,0-.17.19,1.78,1.78,0,0,0,.12.29c.07.36.26,1.27.36,1.56C10.89,26,11,26,12.33,25.54Zm.23,3a12.6,12.6,0,0,0-.09-1.94c-.17,0-1,.26-1.18.26l-.4-.05a.79.79,0,0,0-.22.05c0,.22.14,1.15.14,1.34A1.78,1.78,0,0,0,11,29,4.29,4.29,0,0,0,12.56,28.56Zm4.09-4.78c.12-.72-.36-.91-.87-.91-.17,0-1,.15-1.13.17a3,3,0,0,0-1.29.31c.17.15,1.08.7,1.08.89a5.24,5.24,0,0,0-.12.82,2,2,0,0,1,.48,0,.6.6,0,0,1,.38.09c0,.08.1.36.1.44,0,.36-.58.57-1.11.64,0,.34-.07.94-.07,1.61a2.27,2.27,0,0,0,0,.46,2.46,2.46,0,0,0,.33.07c.12,0,.6-.07.7-.07.19-.19.26-.36.74-1.92,0-.15.53-1.75.53-1.8Zm6.69,4.13a8.26,8.26,0,0,0-1.73-1.82c-.07-.07-.26-.43-.31-.48s-.55-.72-.65-.84l0-.19c.38,0,2,.64,2.33.64.62,0,1.6-2.4,1.68-2.68a2.6,2.6,0,0,0-1.06.16,9.63,9.63,0,0,1-2.23.8,4.93,4.93,0,0,1-1.71-1,.35.35,0,0,1,.08-.22c.19,0,1,.12,1.17.12.91,0,3.31-.48,3.84-1a2.79,2.79,0,0,0,.24-.45l.39-.07a7.23,7.23,0,0,1,2,1.39c.19.17.26.24.26.5,0,.51-.12.55-1.25.84-.09.07-.52.34-.6.41s-.45.38-.55.43A12.66,12.66,0,0,1,24,25.68v.12c.31.34.33.5.67,1.9a.15.15,0,0,0,.12,0,16.5,16.5,0,0,0,1.63-.26c.31-.62.7-.62.77-.62A21.24,21.24,0,0,1,29,28.18c.21.14.69.48.69.76,0,.12-.26.56-1.17.72-.12,0-1.23.87-1.47,1a7.6,7.6,0,0,1-2,1.05l-.1-.14a3,3,0,0,1,.36-.67,13.56,13.56,0,0,0,1.13-2.57l-.1-.05a7.27,7.27,0,0,0-1.82.19A6.62,6.62,0,0,0,23,29c-.05,0-.57.12-.65.14s-.14.17-.19.22a4.09,4.09,0,0,1,1.39.58c.2.14.63.43.84.62a.59.59,0,0,1,.1.38c0,.08-.14,1.25-.14,1.42s0,1.42,0,1.59.12,1.08.12,1.27c0,.41.07,2.25.07,2.61a15.26,15.26,0,0,1-.14,1.78c-.05.31-.53,1.56-.6,1.82-.1.05-.38.36-.48.39a1.45,1.45,0,0,1-.53.09c-.21-.16-.24-.21-.38-.62a3.68,3.68,0,0,0-1.59-1.56s-1.65-1.18-1.72-1.87l.07-.1a9.9,9.9,0,0,1,1.29.51,15.19,15.19,0,0,0,2.16.5c.39-.39.41-3,.41-3.55,0-.15,0-4-.5-4.52-.15-.16-.72-.86-.84-1l-.15-.17a7.57,7.57,0,0,0-1.75.77c-.17.12-.29.24-.38.24-.51,0-1.83-1-1.83-1.46a.29.29,0,0,1,.22-.27c.05,0,.77.34.89.34a8.5,8.5,0,0,0,1.82-.34c.43-.17,2.45-.72,2.86-.86Z"/><path class="cls-2" d="M20.27,52.78a1.88,1.88,0,0,1-1.82,1.82,1.85,1.85,0,0,1-1.85-1.82,1.8,1.8,0,0,1,1.85-1.85A1.85,1.85,0,0,1,20.27,52.78Z"/><path class="cls-2" d="M27.83,77.38c.36.14.41.33.65,1.22s.26,1,.46,1.85a5.87,5.87,0,0,0,.59,1.39l.51.51a5.33,5.33,0,0,1,.07.55.74.74,0,0,1-.7.72,4.88,4.88,0,0,1-2.66-.94,6.56,6.56,0,0,1-1.58-1.49c-.82-.62-2.79-4.22-2.79-8.06,0-.36.05-1.95.07-2.28l.24-3.22a4.62,4.62,0,0,0,.08-.65c0-.09-.2-.55-.41-.55-.41,0-2.19.31-2.52.36s-1.2.34-1.39.39-.75.09-.87.12-2.61.64-2.73.69a3.47,3.47,0,0,1-1.68.27c0,.09.19.45.19.52s-.15.68-.22,1a1.94,1.94,0,0,0-.05.53c0,.46-.31,4.06-.43,4.63l-.41,2a14.19,14.19,0,0,1-1.85,4c-.67.81-1.92,2.2-2.47,2.2a.48.48,0,0,1-.21-.07l0-.12a9.84,9.84,0,0,1,.89-1.32,11,11,0,0,0,2-4.53,24.4,24.4,0,0,0,.77-5.43c0-2.21-.07-2.52-.69-3.67-.2-.34-.22-.36-.41-.7a.3.3,0,0,1-.1-.21c0-.1.05-.12.17-.22l.41,0a4.17,4.17,0,0,1,1.2.33,1.2,1.2,0,0,0,.48.34c.91-.19,4.9-1.11,5.71-1.25A25.17,25.17,0,0,0,22,65.42c.12-.09.6-.62.74-.62.87,0,3,1.8,3,2.38,0,.19,0,.21-.44.45a2.23,2.23,0,0,0-1.08,1.56,16.47,16.47,0,0,0-.52,4.42,12,12,0,0,0,1.65,5.93,4.81,4.81,0,0,0,2.16,2c.34,0,.44-1.68.44-1.92s-.13-1.49-.13-1.73a3.39,3.39,0,0,1,0-.48Zm-13.37-.15-.91-3a.16.16,0,0,0-.14-.14v0l0-.24c.08,0,.1,0,.15,0s.84.36,1,.36a12.83,12.83,0,0,0,2-.5,2.82,2.82,0,0,0-.24-1.16,5.23,5.23,0,0,0-.43-.4c-.21,0-1.25.12-1.44.12s-.24,0-.24-.24.22-.34.84-.65a12.41,12.41,0,0,0,3.31-2.64c.15-.17.12-.27.08-.46.12-.12.16-.14.6-.21.62.36,1.94,1.12,1.94,1.75a.38.38,0,0,1-.38.38,3.45,3.45,0,0,0-1.92.55,13.26,13.26,0,0,1-1.25.63.33.33,0,0,0-.22.24,2.64,2.64,0,0,1,1.23,1.22.53.53,0,0,0-.08.27c0,.12.53-.08.68-.12s.5-.53.6-.53c.76,0,2.16.86,2.16,1.51,0,.17,0,.19-.41.43a10.07,10.07,0,0,0-1,1.18c0,.48-.05.5-.48.67a9.58,9.58,0,0,0-2,.67,13.52,13.52,0,0,0-.21,1.4c0,.11-.12.74-.12.86a13.91,13.91,0,0,0,2.59-.75,2.34,2.34,0,0,0-.39-.91,2.38,2.38,0,0,1-.24-.55.35.35,0,0,1,.22-.09,6.71,6.71,0,0,1,1.92,1.39c.46.33,1,.69,1,2.16,0,.12,0,.65-.29.65-.57,0-1.27-1.13-1.41-1.37s-.29-.55-.41-.55-5,1.82-5.5,2.06c-.17.1-.79.6-.93.7a3.09,3.09,0,0,1-1.49-2.09,1.65,1.65,0,0,1,.07-.2,1,1,0,0,1,.65.13,4.89,4.89,0,0,0,.93.21,16.54,16.54,0,0,0,2.21-.53s.05-.31.07-.48.08-.53.08-.62,0-1,0-1.13c-.09,0-.5.1-.57.1-.34,0-.51.55-.6.91-.34,0-.41-.1-1-.67Zm.65-2.44a6.2,6.2,0,0,1,.53,1.51,2.21,2.21,0,0,0,.43.09,5.93,5.93,0,0,0,.65-.19,3.85,3.85,0,0,0,.05-.5c0-.12-.05-.65-.05-.75a2,2,0,0,0,0-.6c-.14,0-.77.22-.94.29s-.5,0-.57.07Zm3.12-.85a3.88,3.88,0,0,0-.14.89c0,.15-.05.84-.05,1s.31,0,.55-.1.38-.19.5-.79c0-.17.27-.82.29-1a2.64,2.64,0,0,0,0-.36A6,6,0,0,0,18.23,73.94Z"/></g></g></svg>