<svg xmlns="http://www.w3.org/2000/svg" viewBox="0 0 36.89 81.67"><defs><style>.cls-1{fill:#edd037;}.cls-2{fill:#595757;}</style></defs><title>資產 27</title><g id="圖層_2" data-name="圖層 2"><g id="手機直排"><path class="cls-1" d="M36.89,53.14A18.45,18.45,0,1,1,18.45,34.7,18.45,18.45,0,0,1,36.89,53.14Z"/><path class="cls-2" d="M11.61,14.38c0,.91,0,1,.12,1.17.43,0,2.06-.24,2.61-.33l2.19-.36c.14,0,.86-.07,1-.12a.35.35,0,0,0,.07-.15c0-.09-.15-.81-.15-1V12.5c0-.16-.07-1-.07-1.08,0-.33,0-1.82,0-2.11s0-1,0-1.15l0-2.3c0-.19-.07-1.11-.07-1.28A11.78,11.78,0,0,0,17,2c-.1-.34-1.18-1.61-1.18-1.76A.26.26,0,0,1,16.07,0a7,7,0,0,1,2.16.24A6.75,6.75,0,0,1,20.18,2c-.08.16-.41.81-.46,1s-.12.81-.17,1.08S19.5,5,19.5,5.11V7.66c0,.76-.21,4.13-.21,4.82a6.78,6.78,0,0,1-.15,2c.24,0,1.28,0,1.49,0l2.21,0a17.57,17.57,0,0,0,1.92,0,22.43,22.43,0,0,0,.48-3.69,4.17,4.17,0,0,0-.17-1.23,10.11,10.11,0,0,1-.43-1,.49.49,0,0,1,.5-.43,4.21,4.21,0,0,1,3,2.42c0,.1-.05.15-.46.68a1.92,1.92,0,0,0-.34,1v.26L27,14.57c-.12.86-.81,3.41-1.77,3.41-.32,0-.34-.07-.51-.63a2.89,2.89,0,0,1-.19-.74c0-.07.07-.82.07-.91-.45-.24-.72-.39-3.57-.39a3.53,3.53,0,0,0-1,.15c-.17,0-1.08.12-1.25.14s-.84.19-1,.19-1.25.1-1.44.15c-.46.12-2.69.74-3.07.91-.07,0-1.25.7-1.37.82s-.43.45-.53.55a2.83,2.83,0,0,1-.48.21l-.12,0a7.41,7.41,0,0,1-1.37-2.28v-.36a1.59,1.59,0,0,0,.17-.6A4,4,0,0,0,10,13.39a6.9,6.9,0,0,0-.41-2.88,5.49,5.49,0,0,0-1.17-1.2.33.33,0,0,1-.12-.24c0-.14.14-.19.24-.19s1,.24,1,.24.82.41.87.46.7.5.82.62c.33.31.64.63.64.87s0,.16-.24.62a1.57,1.57,0,0,0-.09.58Z"/><path class="cls-2" d="M14.3,31.42c.14-.1.86-.34,1-.44a8.91,8.91,0,0,1,1-.07c.34,0,1,0,1,.67,0,.22-.07.25-.77.44a20,20,0,0,0-2.37.65c0,.09-.2,1.67-.2,1.79A2.08,2.08,0,0,0,14,35c.63-.15,3.48-1.23,3.94-1.23.14,0,.19.05.26.22-.21.24-.29.28-1.05.64-.34.15-1.95.84-2.09.94-.51.24-1,.51-1.47.79-.12,0-3.31,1.42-3.45,1.56-.53.58-.58.63-.87.63s-.26-.08-.81-.75a6.94,6.94,0,0,1-.72-.6,1.21,1.21,0,0,1-.22-.57c0-.15.19-.22.29-.22s.72.31.84.31A10.58,10.58,0,0,0,11.44,36c.1,0,.91-.31,1-.38a1.34,1.34,0,0,0,.17-.17,2.23,2.23,0,0,0,0-.36s0-1.39,0-1.44V33l-.1-.07a8.61,8.61,0,0,1-1.1.31c-.12,0-.58.22-.67.22-.41,0-1.42-.41-1.42-.82,0-.14.17-.22.26-.22s.49.08.56.08a8.65,8.65,0,0,0,1.13-.15c.09,0,1-.29,1.17-.33l.1-.08c0-.11.07-2.08.07-2.2s-.05-.22-.17-.22a11.6,11.6,0,0,0-1.15.43c-.24.1-.31.15-.38.65-.53.17-1.45-1.34-1.59-2.09a17,17,0,0,0-1.58-4.94c-.08-.12-.58-.6-.58-.75a.2.2,0,0,1,.19-.19,5.08,5.08,0,0,1,1.88.87,38.54,38.54,0,0,1,5.61-1.2c.51-.08.67-.22,1.42-.77a.56.56,0,0,1,.38-.15.87.87,0,0,1,.22.05,13.23,13.23,0,0,0,1.75,1.23c.38.24.82.67.82.93,0,.07-.1.17-.15.22A10.25,10.25,0,0,0,18.09,26,18.55,18.55,0,0,1,16.5,29a.81.81,0,0,1-.48.27c-.07,0-.45-.22-.52-.22-.22,0-1.2.07-1.4.05,0,.21,0,1.13,0,1.41a6.21,6.21,0,0,0,.09.92Zm-2-5.88a3.33,3.33,0,0,0-.39-1.42c-.09-.29-.19-.41-.81-.41-.05,0-.84.19-1,.22a.25.25,0,0,0-.17.19,1.78,1.78,0,0,0,.12.29c.07.36.27,1.27.36,1.56C10.89,26,11,26,12.33,25.54Zm.24,3a14,14,0,0,0-.1-1.94c-.17,0-1,.26-1.17.26l-.41-.05a.79.79,0,0,0-.22.05c0,.22.14,1.15.14,1.34A1.78,1.78,0,0,0,11,29,4.38,4.38,0,0,0,12.57,28.56Zm4.08-4.78c.12-.72-.36-.91-.87-.91-.16,0-1,.15-1.12.17a3,3,0,0,0-1.3.31c.17.15,1.08.7,1.08.89a5.24,5.24,0,0,0-.12.82,2,2,0,0,1,.48,0,.58.58,0,0,1,.38.09c0,.08.1.36.1.44,0,.36-.58.57-1.1.64,0,.34-.08.94-.08,1.61a2.27,2.27,0,0,0,0,.46,2.46,2.46,0,0,0,.33.07c.12,0,.6-.07.7-.07.19-.19.26-.36.74-1.92,0-.15.53-1.75.53-1.8Zm6.69,4.13a8.21,8.21,0,0,0-1.72-1.82c-.08-.07-.27-.43-.32-.48s-.55-.72-.64-.84l0-.19c.38,0,2,.64,2.33.64.62,0,1.61-2.4,1.68-2.68a2.6,2.6,0,0,0-1.06.16,9.63,9.63,0,0,1-2.23.8,4.88,4.88,0,0,1-1.7-1,.35.35,0,0,1,.07-.22c.19,0,1,.12,1.17.12.92,0,3.32-.48,3.84-1a2.79,2.79,0,0,0,.24-.45l.39-.07a7.23,7.23,0,0,1,2,1.39c.19.17.26.24.26.5,0,.51-.12.55-1.24.84-.1.07-.53.34-.6.41s-.46.38-.56.43A12.66,12.66,0,0,1,24,25.68v.12c.31.34.33.5.67,1.9a.15.15,0,0,0,.12,0,16.5,16.5,0,0,0,1.63-.26c.31-.62.7-.62.77-.62A21.24,21.24,0,0,1,29,28.18c.22.14.7.48.7.76,0,.12-.27.56-1.18.72-.12,0-1.22.87-1.46,1a7.81,7.81,0,0,1-2,1.05l-.1-.14a3,3,0,0,1,.36-.67,13.56,13.56,0,0,0,1.13-2.57l-.09-.05a7.3,7.3,0,0,0-1.83.19A6.62,6.62,0,0,0,23,29l-.64.14c-.05,0-.15.17-.2.22a4.29,4.29,0,0,1,1.4.58c.19.14.62.43.84.62a.65.65,0,0,1,.09.38c0,.08-.14,1.25-.14,1.42s0,1.42,0,1.59.12,1.08.12,1.27c0,.41.08,2.25.08,2.61a15.82,15.82,0,0,1-.15,1.78c-.05.31-.53,1.56-.6,1.82a5.84,5.84,0,0,1-.48.39,1.45,1.45,0,0,1-.53.09c-.21-.16-.24-.21-.38-.62a3.7,3.7,0,0,0-1.58-1.56c-.05,0-1.66-1.18-1.73-1.87l.07-.1a10,10,0,0,1,1.3.51,14.57,14.57,0,0,0,2.16.5c.38-.39.4-3,.4-3.55,0-.15,0-4-.5-4.52-.14-.16-.72-.86-.84-1a1.53,1.53,0,0,1-.14-.17,7.48,7.48,0,0,0-1.76.77c-.16.12-.28.24-.38.24-.5,0-1.82-1-1.82-1.46a.28.28,0,0,1,.21-.27c.05,0,.77.34.89.34a8.5,8.5,0,0,0,1.82-.34c.44-.17,2.45-.72,2.86-.86Z"/><path class="cls-2" d="M20.27,52.78a1.88,1.88,0,0,1-1.82,1.82,1.85,1.85,0,0,1-1.85-1.82,1.8,1.8,0,0,1,1.85-1.85A1.85,1.85,0,0,1,20.27,52.78Z"/><path class="cls-2" d="M17.49,78.75a.3.3,0,0,1,0-.15c0-.29,0-1.46,0-1.73,0-.07,0-.64,0-.74V75.5l.1-1.92c0-.19-.05-1.34-.1-1.58-.82-.09-2.09.36-2.93.36a5.74,5.74,0,0,1-2.25-1.46c0-.12.12-.15.19-.15s1.27.22,1.39.22l1.25,0c.31,0,1.63-.24,1.92-.24a.61.61,0,0,0,.48-.12c0-.17,0-2.21,0-2.52A13.6,13.6,0,0,0,17,65.23c-.07-.09-.33-.6-.4-.67-.24-.26-.63-.67-.63-.86a.33.33,0,0,1,.36-.36,3.57,3.57,0,0,1,2.47.84,13.81,13.81,0,0,1,1.47,1,.52.52,0,0,1,.24.43c0,.29-.55,1.51-.6,1.78a25.57,25.57,0,0,0-.15,3,4.5,4.5,0,0,0,1-.14c.19,0,1.08-.5,1.15-.5a4.23,4.23,0,0,1,1.92.38,1,1,0,0,1,.58.89,5,5,0,0,1-1.8.55l-1.18.07c-.14,0-1,.17-1.17.17a2.43,2.43,0,0,0-.6,0v.48l-.07,2.49c0,.29-.1,1.54-.1,1.78s-.07.86-.07,1-.07.86-.07,1,.16.09.69.09l1.66,0,.81,0,2.45.1a.5.5,0,0,0,.24-.1,1,1,0,0,1,.6-.21c.58,0,2.79,1.37,2.79,2.13a.53.53,0,0,1-.58.53,1.64,1.64,0,0,1-.91-.26.43.43,0,0,0-.22-.07l-2-.65c-.15,0-.8-.17-.92-.22s-2.61-.31-2.76-.31A26.52,26.52,0,0,0,16,80l-1.35.27c-.21,0-1.17.38-1.39.41a6.89,6.89,0,0,0-2.28.76l-.1,0a.31.31,0,0,1-.29.19c-.5,0-.74-.21-1.53-.86a3.42,3.42,0,0,1-1-1A.6.6,0,0,1,8,79.51c0-.16.19-.19.31-.21l1.08.29c.05,0,.72.07.91.07.39,0,2-.15,2.36-.15a10.52,10.52,0,0,0,1.89-.26c.46-.12,2.55-.29,3-.41Z"/></g></g></svg>