<svg xmlns="http://www.w3.org/2000/svg" viewBox="0 0 30.76 70.67"><defs><style>.cls-1{fill:#edd037;}.cls-2{fill:#595757;}</style></defs><g id="圖層_2" data-name="圖層 2"><g id="妖怪資料卡"><path class="cls-1" d="M30.76,45.38A15.38,15.38,0,1,1,15.38,30,15.38,15.38,0,0,1,30.76,45.38Z"/><path class="cls-2" d="M11.48,7.21a18,18,0,0,1-1.74.66l-.58.26c-.08.1-.18.2-.54.2-.1,0-1.48-.94-1.58-1.46a.87.87,0,0,1,0-.1,1.05,1.05,0,0,1,.24-.06c.06,0,.1,0,.48.18A1.42,1.42,0,0,0,8.32,7a6.16,6.16,0,0,0,1.76-.46c.12,0,.86-.34.9-.38a4.21,4.21,0,0,1,.52-.66,1,1,0,0,1,.26,0,4.61,4.61,0,0,1,2.42,1.81c0,.5-.1.54-.66.78s-.94,1.1-1.14,1.48c0,.06-1.34,1.9-1.46,2s-.76.94-.9,1.08-.92.82-1.08.92a8.54,8.54,0,0,0-.72.5,6.29,6.29,0,0,1-1.68.64.21.21,0,0,1-.12-.2c0-.18,1-1,1.2-1.22A18.87,18.87,0,0,0,9.6,11c.5-.68,2.1-3.32,2.06-3.82Zm3.26,4,.06-1.86-.06-1.92c0-.38,0-.54,0-.9,0-.2-.08-1.1-.08-1.28,0-.65,0-3.43-.4-4.23A2.21,2.21,0,0,0,13.7.38a3.33,3.33,0,0,1-.24-.26l0-.06L14.24,0a2,2,0,0,1,1,.24c.19.16.53.48.55.5.3.18,1.1.76,1.1,1.18a6,6,0,0,1-.46,1,11.52,11.52,0,0,0-.3,3c0,.12-.08.6-.08.7s.06.76.08.82a1,1,0,0,0,.14.26,5.73,5.73,0,0,0,1.9-1.34C18.71,6,20.23,4.54,20.23,4c0-.1-.06-.16-.2-.38a.25.25,0,0,1,0-.12.52.52,0,0,1,.34-.14,2.27,2.27,0,0,1,.76.24c.18.12,1.26,1.08,1.26,1.55,0,.27-.16.32-.62.4l-.44.16c-.22.08-1.12.78-1.32.88s-2.06,1.14-2.28,1.24-.84.32-1,.38a1.94,1.94,0,0,0,.88,1l.4.4,1.48,1.2c.12.1.72.44.82.52s1,.68,1.12.78,1.8,1.12,2,1.22c.36.14,1,.38,1,.78,0,.06,0,.12-.14.16l-1,.11-1,0c-.16,0-.92-.14-1.06-.14a13.89,13.89,0,0,1-1.76-1.58c-.06,0-.72-.72-.74-.74-.34-.42-.38-.48-.64-.62a18.86,18.86,0,0,0-1.76-2,.41.41,0,0,0-.32-.06c0,.44,0,2.16,0,2.7s.12,2.84.12,3.3c0,1.35-.7,2.77-1.21,2.77-.36,0-.44-.26-.54-.58a4.8,4.8,0,0,0-1.7-1.93A9.08,9.08,0,0,1,11.5,14c0-.08.08-.22.22-.22a3.15,3.15,0,0,1,.52.26,6.77,6.77,0,0,0,2.24.64,3.38,3.38,0,0,0,.22-1.2c0-.2,0-.84,0-1Z"/><path class="cls-2" d="M6.14,31.26l.08,0a2.37,2.37,0,0,0,.62.14,4.69,4.69,0,0,0,2-.84c0-.3.06-1.84.1-2.28a15.81,15.81,0,0,0,0-2.38c-.18,0-.26,0-1,.3A.8.8,0,0,1,7.44,26a.93.93,0,0,1-.56-.24c-.1-.08-.6-.4-.68-.48s0-.14.08-.14a1.29,1.29,0,0,1,.26.08,6.63,6.63,0,0,0,.82.1c.06,0,.32-.08.34-.08A5.36,5.36,0,0,0,9,24.88c0-.24,0-1.62-.16-3.34a3,3,0,0,0-1-1.87l0-.08a2.26,2.26,0,0,1,1-.18,3.87,3.87,0,0,1,1.38.52c.6.48,1,.76,1,1.06,0,.14-.26.72-.28.84a13.55,13.55,0,0,0-.3,2.39,7,7,0,0,1,.78-.38c.06,0,.3.08.36.08.32,0,.68,0,.68.44,0,.14,0,.18-.38.54a.67.67,0,0,0-.4.14c-.06,0-.14,0-.32,0a3.61,3.61,0,0,1-.42.16l-.38.26c-.06.36-.3,4-.32,4.34.26-.1,1.34-.72,1.56-.84a3.09,3.09,0,0,0,.46-.12l.08,0v0a12.09,12.09,0,0,1-1.72,1.62l-1.32,1c-.08.08-.86.75-1,.85s-.32.56-.38.64a.65.65,0,0,1-.22.08c-.26,0-.48-.4-.68-.56l-.42-.31a5.91,5.91,0,0,1-.4-.74Zm6,.78a8.31,8.31,0,0,0,2-.74l1.54-.72c.15-.06.73-.4.87-.46a5.25,5.25,0,0,0,1-.46,2.44,2.44,0,0,1,.92-.4s.06,0,.12.08c0,.26,0,.26-.34.48,0,0-.34.32-.42.36a10.09,10.09,0,0,0-1.9,1.16c-.21.14-1.19.7-1.37.85-1.18.92-1.3,1-1.4,1.2s-.06.08-.14.08c-.24,0-.74-.48-.92-.64a3,3,0,0,1-.48-.37,3.34,3.34,0,0,1-.08-.54.08.08,0,0,1,.1,0Zm-.06-6.22c.14,0,.66.12.82.18a4.48,4.48,0,0,0,.58.24,8.19,8.19,0,0,0,2.27-.92c.05,0,.22-.4.3-.4.4,0,1.72,1.32,1.72,1.44a.91.91,0,0,1-.3.5.45.45,0,0,1-.16.22c0,.06-.06.3-.08.34A4.45,4.45,0,0,0,17,28l.1.1c.1,0,.26.08.26.26s-.08.22-.72.4a16.47,16.47,0,0,0-2.07.48c-.1.06-.38.56-.48.56-.38,0-.82-1.14-.88-1.38a6.4,6.4,0,0,0-1.08-2.6Zm.22-2.24c.14,0,1,0,1.18,0s.92-.14,1-.16l1.79-.38,1.08-.28c-.06-.23-.74-2.81-1-3.55a6.93,6.93,0,0,0-.72-1.18c0-.28.44-.32.64-.32.66,0,2.2.94,2.2,1.32,0,.16-.26.8-.26.94s0,1.24.06,1.47l.08,1.06A12.52,12.52,0,0,0,21,21.67c.08,0,.44-.13.52-.18a1.93,1.93,0,0,0,.94.14.38.38,0,0,1,.4.36c0,.24-.12.3-.64.48a2.45,2.45,0,0,1-.5.27c-.22,0-1.22.22-1.36.24a10.44,10.44,0,0,0-1.92.34A22,22,0,0,0,18.91,26a18.8,18.8,0,0,0,1,2.62c.12-.18.76-1.58.92-1.88l0-.64c-.06-.12-.06-.14,0-.22s.16,0,.24,0,.84.46,1,.54.52.6.62.66.24.1.24.14.06.24.08.28a1,1,0,0,1-.5.46,1.1,1.1,0,0,0-.4.4,2.38,2.38,0,0,1-.54.66c-.06,0-.76,1.36-.82,1.46A8.28,8.28,0,0,0,22,32.32c.06.06.24.37.3.43a7.4,7.4,0,0,0,.56.56c.16-.1.2-.14.22-.22a4.49,4.49,0,0,0,.24-1.3c0-.13,0-.65,0-.75a1.29,1.29,0,0,1,.08-.44c0-.14,0-.14,0-.18l.06,0a9.74,9.74,0,0,1,.6,2.08,4.66,4.66,0,0,0,.5,2.31,2,2,0,0,1,.2.88.43.43,0,0,1-.46.4,3.51,3.51,0,0,1-1.46-.62,17.36,17.36,0,0,1-1.5-1.94,2.62,2.62,0,0,0-.5-.89c-.18-.22-.7-1.28-.82-1.48-.1.12-.52.68-.6.76a5.12,5.12,0,0,1-.44.34,6.2,6.2,0,0,1-.86.67c-.08.05-.5.5-.62.58a1.45,1.45,0,0,1-.18.16c-.06,0-1.34.74-1.34.74a1.84,1.84,0,0,1-.6.14l0,0,.08-.06c.07-.16.11-.18.39-.4a4.19,4.19,0,0,0,.34-.28,13.2,13.2,0,0,1,1-.92c0-.14.08-.16.34-.43s.4-.5.72-.94a13.36,13.36,0,0,0,1.18-1.76,22.18,22.18,0,0,1-.92-2.5c-.16-.58-.82-3.12-1-3.64a29.39,29.39,0,0,0-3.29.78.18.18,0,0,1-.1,0,15.18,15.18,0,0,1-1.82-.74Zm2.92,4.74c.41-.18.61-1.14.61-1.5v-.74a10.68,10.68,0,0,0-1.05.34s-.54.08-.64.12-.3.06-.3.22.4,1.3.58,1.74A2.8,2.8,0,0,0,15.22,28.32Zm7.65-7.55c-.24.12-.28.14-.34.14a9.06,9.06,0,0,1-1.46-.68,7,7,0,0,0-1.48-.84,1.06,1.06,0,0,1-.3-.3c0-.14.32-.3.46-.3s1.18.18,1.38.18.28,0,.38.06a4.17,4.17,0,0,0,.92.24A2.66,2.66,0,0,1,22.87,20.77Z"/><path class="cls-2" d="M16.91,45.07a1.57,1.57,0,0,1-1.52,1.52,1.54,1.54,0,0,1-1.55-1.52,1.51,1.51,0,0,1,1.55-1.54A1.54,1.54,0,0,1,16.91,45.07Z"/><path class="cls-2" d="M10.86,66.15a4.75,4.75,0,0,0,1.24-.66,2.9,2.9,0,0,1,1.56-.64c.06.19,0,.26-.5.74-.18.16-1.18,1.22-1.34,1.3a5,5,0,0,0-1,.84c-.06.06-.44.34-.5.4s-.22.24-.26.26c-.2.2-1.18.9-1.34,1.08s-.7,1.2-.92,1.2a2.78,2.78,0,0,1-1.2-.88c-.16-.28-.52-1.16-.52-1.16a1.54,1.54,0,0,1,0-.3,1.48,1.48,0,0,1,.24,0,.74.74,0,0,1,.38.16.58.58,0,0,0,.32.1,7.07,7.07,0,0,0,2.2-1.26,4.77,4.77,0,0,0,.14-1.46c0-.06.06-.56.06-.66,0-.85,0-1.85,0-2s0-.38-.12-.38-.44.1-.52.1-.62.08-.72.08a13.57,13.57,0,0,1-1.64-.36c-.1,0-.14-.08-.12-.2a13.41,13.41,0,0,1,1.52-.26c.2-.06,1.44-.5,1.54-.56a1,1,0,0,0,.08-.4c0-.12-.06-.68-.06-.8a19.2,19.2,0,0,0-.26-3,7.78,7.78,0,0,0-.88-.94c.1-.16.16-.28.58-.28a2.68,2.68,0,0,1,1.9.8,7.06,7.06,0,0,1,.64.42,1.57,1.57,0,0,1,.2.3c0,.1,0,.12-.14.18a4.07,4.07,0,0,1-.22.64C11.22,58.7,11,60.78,11,61a2.71,2.71,0,0,1,.6-.28c.48,0,1.48.06,1.48.78,0,.2-.06.24-.58.48a9.3,9.3,0,0,0-1.64.6c0,.12-.06.66-.06.76,0,.44,0,2.33,0,2.71ZM18.51,64c0,.06-.2.62-.22.72a5.6,5.6,0,0,1-.62,1.63.35.35,0,0,1-.26.1c-.26,0-.3-.26-.3-.42s0-.2.12-1c0-.27.2-2.24.24-2.66l-.06-.06L16,63a1.43,1.43,0,0,0-.3.22c0,.1,0,1.54,0,1.76,0,.89.1,2.57.6,2.87a5.8,5.8,0,0,0,2.1.52l1.7,0c.18,0,2.42-.18,2.64-.5A1.58,1.58,0,0,0,23,67c0-.12.26-.74.28-.86s.12-1,.14-1a.38.38,0,0,1,.22-.11c.36,0,.4.7.4.88a5,5,0,0,0,.56,2c.28.24.62.54.62.86,0,.68-1.68.94-1.82.94l-1.32,0c-.06,0-.26,0-.36,0s-.82-.06-1-.06L19,69.53,16.37,69a3.17,3.17,0,0,1-1.05-.62,2.57,2.57,0,0,1-.72-1.72l-.18-2.29a3.75,3.75,0,0,1,0-.42c-.08,0-.4.2-.46.22-.12.2-.18.27-.3.27-.36,0-1.68-.61-1.68-1,0-.14.16-.18.26-.18l.66,0c.24,0,.3,0,.94-.34s.6-.3.6-.52-.12-2.7-.16-2.88a8.1,8.1,0,0,0-.7-1.26l0-.06.32-.08c.66,0,.88,0,1.12.26.08.1.57.6.65.7s.42.36.48.44a4.52,4.52,0,0,1-.2,1.06,4.14,4.14,0,0,0-.16,1.3c.22-.06,1.16-.48,1.36-.54l.38-.16c0-.12.1-1.64.1-1.7s0-.44,0-.52.08-1.7.08-2c0-1,0-1.12-.08-1.3s-.48-.72-.48-.77a.2.2,0,0,1,.14-.19,4,4,0,0,1,.56-.18c.58.1,2.22,1.4,2.22,1.88a5.41,5.41,0,0,1-.34.78c-.06.16-.5,2.68-.5,2.74a2.69,2.69,0,0,0,0,.38,3.09,3.09,0,0,0,1.06-.62,1.61,1.61,0,0,1,.82-.7c.12.12,2.52,1.54,2.52,2.06,0,.12,0,.12-.28.24-.6.28-1.8,3.09-2.14,3.57-1,1.34-1.3,1.34-1.62,1.3-.24-.69-.28-.8-.46-1a1.66,1.66,0,0,1-.48-.71l0-.09c.14,0,.7.16.82.16a.51.51,0,0,0,.44-.23c0-.08.32-.68.34-.72a8.83,8.83,0,0,0,.42-2.48.49.49,0,0,0-.1-.34,5.24,5.24,0,0,0-1.34.46c-.24.12-.26.28-.34.66Z"/></g></g></svg>