<svg xmlns="http://www.w3.org/2000/svg" viewBox="0 0 36.89 86.35"><defs><style>.cls-1{fill:#5c9e97;}.cls-2{fill:#595757;}</style></defs><title>資產 30</title><g id="圖層_2" data-name="圖層 2"><g id="手機直排"><path class="cls-1" d="M36.89,54.41A18.45,18.45,0,1,1,18.45,36,18.45,18.45,0,0,1,36.89,54.41Z"/><path class="cls-2" d="M13.76,8.64a18.8,18.8,0,0,1-2.08.79c-.1.05-.58.27-.7.31s-.22.24-.65.24c-.12,0-1.77-1.12-1.89-1.75a.68.68,0,0,1,0-.12A1.53,1.53,0,0,1,8.7,8c.07,0,.12,0,.58.22A1.68,1.68,0,0,0,10,8.4a7.35,7.35,0,0,0,2.11-.55c.15,0,1-.41,1.09-.46a5.06,5.06,0,0,1,.62-.79,1.34,1.34,0,0,1,.31,0c.74,0,2.9,1.71,2.9,2.16s-.12.65-.79.94S15.08,11,14.84,11.42c0,.08-1.6,2.29-1.75,2.45S12.18,15,12,15.17s-1.1,1-1.29,1.1-.58.39-.87.6a7.73,7.73,0,0,1-2,.77.25.25,0,0,1-.15-.24c0-.21,1.2-1.22,1.44-1.46a22.49,22.49,0,0,0,2.38-2.74c.6-.82,2.52-4,2.47-4.58Zm3.92,4.82.07-2.23-.07-2.3c0-.46,0-.65,0-1.08,0-.24-.09-1.32-.09-1.54,0-.77,0-4.1-.48-5.06a2.73,2.73,0,0,0-.65-.79s-.24-.27-.29-.32l0-.07c.14,0,.79-.07.91-.07a2.4,2.4,0,0,1,1.2.29l.65.6c.36.21,1.32.91,1.32,1.41a6.52,6.52,0,0,1-.56,1.16,14.25,14.25,0,0,0-.36,3.62c0,.14-.09.72-.09.84s.07.91.09,1a1.79,1.79,0,0,0,.17.32,6.92,6.92,0,0,0,2.28-1.61c.65-.46,2.47-2.16,2.47-2.76,0-.12-.07-.19-.24-.46a.34.34,0,0,1,0-.14.61.61,0,0,1,.41-.17,2.78,2.78,0,0,1,.91.29c.22.14,1.51,1.29,1.51,1.85,0,.33-.19.38-.74.48,0,0-.46.16-.53.19-.26.09-1.34.93-1.58,1.05s-2.48,1.37-2.74,1.49-1,.39-1.15.46A2.33,2.33,0,0,0,21.13,11c.08.07.41.41.48.48L23.39,13c.14.12.86.53,1,.62s1.16.82,1.35.94,2.16,1.35,2.37,1.47c.44.16,1.2.45,1.2.93a.2.2,0,0,1-.16.19c-.34.05-.89.1-1.16.12l-1.17,0c-.19,0-1.11-.17-1.27-.17a16.9,16.9,0,0,1-2.12-1.9c-.07,0-.86-.86-.88-.88-.41-.51-.46-.58-.77-.75a25,25,0,0,0-2.11-2.4.53.53,0,0,0-.39-.07c-.05.53-.05,2.59-.05,3.24s.15,3.41.15,4c0,1.61-.84,3.31-1.44,3.31-.43,0-.53-.31-.65-.69s-.7-1.23-2-2.31a10.9,10.9,0,0,1-1.44-1.77c0-.1.09-.27.26-.27a3.74,3.74,0,0,1,.63.32,8.39,8.39,0,0,0,2.69.76,4.12,4.12,0,0,0,.26-1.44c0-.24.05-1,.05-1.2Z"/><path class="cls-2" d="M7.36,37.49l.09,0a2.78,2.78,0,0,0,.75.17,5.54,5.54,0,0,0,2.44-1c0-.36.08-2.2.12-2.73A18.28,18.28,0,0,0,10.81,31c-.21,0-.31,0-1.15.36a.91.91,0,0,1-.74-.22,1.12,1.12,0,0,1-.68-.28c-.12-.1-.72-.48-.81-.58s0-.17.09-.17a1.31,1.31,0,0,1,.32.1,8.23,8.23,0,0,0,1,.12c.07,0,.38-.1.41-.1a6.61,6.61,0,0,0,1.56-.43c0-.29,0-1.94-.19-4a3.58,3.58,0,0,0-1.25-2.23l0-.1a2.75,2.75,0,0,1,1.2-.21,4.73,4.73,0,0,1,1.66.62c.72.58,1.15.91,1.15,1.27,0,.17-.31.87-.33,1A15.25,15.25,0,0,0,12.64,29a8,8,0,0,1,.93-.46c.07,0,.36.1.43.1.39,0,.82,0,.82.53,0,.17-.05.21-.45.64a.86.86,0,0,0-.49.17c-.07.05-.16.05-.38.05a3.41,3.41,0,0,1-.5.19l-.46.32c-.07.43-.36,4.84-.38,5.2.31-.12,1.6-.86,1.87-1a4,4,0,0,0,.55-.15l.1,0v0a14.21,14.21,0,0,1-2.07,1.94L11,37.9c-.1.09-1,.88-1.15,1s-.39.68-.46.77a.56.56,0,0,1-.26.1c-.32,0-.58-.48-.82-.67l-.5-.36a7.1,7.1,0,0,1-.48-.89Zm7.2.93A9.62,9.62,0,0,0,17,37.54l1.85-.87c.17-.07.87-.48,1-.55A6.39,6.39,0,0,0,21,35.57a2.86,2.86,0,0,1,1.1-.48c.05,0,.07,0,.15.09,0,.32,0,.32-.41.58,0,0-.41.38-.51.43a12.91,12.91,0,0,0-2.28,1.39c-.24.17-1.41.84-1.63,1C16,39.7,15.9,39.82,15.78,40s-.07.1-.17.1c-.28,0-.89-.58-1.1-.77a3.8,3.8,0,0,1-.58-.43,4.71,4.71,0,0,1-.09-.65s0-.05.12,0ZM14.49,31c.16.05.79.14,1,.21a5,5,0,0,0,.7.29,9.88,9.88,0,0,0,2.71-1.1c.07-.05.26-.48.36-.48.48,0,2.06,1.58,2.06,1.73a1.06,1.06,0,0,1-.36.6c-.07.14-.07.17-.19.26a4.11,4.11,0,0,1-.1.41,5.24,5.24,0,0,0-.33.74l.12.12c.12,0,.31.1.31.32s-.1.26-.86.48a19.1,19.1,0,0,0-2.48.57c-.12.07-.45.67-.57.67-.46,0-1-1.36-1.06-1.65A7.66,7.66,0,0,0,14.49,31Zm.26-2.69c.17,0,1.2,0,1.42,0s1.1-.16,1.2-.19l2.13-.45c.51-.12.75-.19,1.3-.34-.07-.26-.89-3.36-1.15-4.25a8,8,0,0,0-.87-1.41c0-.34.53-.39.77-.39.79,0,2.64,1.13,2.64,1.59,0,.19-.31,1-.31,1.12s.05,1.49.07,1.76l.1,1.27a14.41,14.41,0,0,0,3.16-1c.1,0,.53-.17.63-.22a2.46,2.46,0,0,0,1.13.17.46.46,0,0,1,.48.44c0,.28-.15.35-.77.57a3.82,3.82,0,0,1-.6.31c-.27,0-1.47.27-1.63.29a12,12,0,0,0-2.31.41,25.07,25.07,0,0,0,.53,3.19,21.18,21.18,0,0,0,1.25,3.14c.14-.21.91-1.89,1.1-2.25l0-.77c-.07-.14-.07-.17-.05-.26s.19-.05.29-.05,1,.55,1.22.65.63.72.75.79.28.12.28.17.08.29.1.33a1.26,1.26,0,0,1-.6.56,1.3,1.3,0,0,0-.48.48,3,3,0,0,1-.65.79c-.07.05-.91,1.63-1,1.75a9.94,9.94,0,0,0,1.53,2.28c.08.07.29.43.36.5s.56.6.68.68c.19-.12.24-.17.26-.27A5.15,5.15,0,0,0,28,38.11c0-.14,0-.77,0-.89a1.58,1.58,0,0,1,.1-.52c0-.17,0-.17.05-.22l.07,0A11.56,11.56,0,0,1,28.91,39c.17,1.8.19,2,.6,2.76a2.4,2.4,0,0,1,.24,1.06.51.51,0,0,1-.55.48,4.13,4.13,0,0,1-1.75-.75,20.28,20.28,0,0,1-1.8-2.32,3,3,0,0,0-.6-1.06c-.22-.26-.84-1.54-1-1.78-.12.15-.62.82-.72.92s-.45.33-.53.4a6.17,6.17,0,0,1-1,.8c-.09.07-.6.6-.74.69a1.37,1.37,0,0,1-.22.19l-1.61.89a2,2,0,0,1-.72.17l0,0,.1-.07c.07-.19.12-.22.45-.48a4.1,4.1,0,0,0,.41-.34c.24-.24,1-1,1.15-1.1s.1-.19.41-.5.48-.6.86-1.13a15.8,15.8,0,0,0,1.42-2.11,25.87,25.87,0,0,1-1.1-3c-.2-.7-1-3.75-1.18-4.37a35.68,35.68,0,0,0-3.94.93.18.18,0,0,1-.12,0,18.3,18.3,0,0,1-2.18-.89ZM18.25,34c.48-.22.72-1.37.72-1.8v-.89a12,12,0,0,0-1.24.41c-.05,0-.65.1-.77.14s-.36.08-.36.27c0,0,.48,1.56.69,2.09A3.5,3.5,0,0,0,18.25,34Zm9.17-9c-.29.14-.33.17-.41.17a11,11,0,0,1-1.75-.82,8.82,8.82,0,0,0-1.77-1,1.12,1.12,0,0,1-.36-.36c0-.16.38-.36.55-.36s1.41.22,1.65.22.34,0,.46.07a4.85,4.85,0,0,0,1.1.29A3.17,3.17,0,0,1,27.42,24.91Z"/><path class="cls-2" d="M20.27,54.05a1.88,1.88,0,0,1-1.82,1.82,1.85,1.85,0,0,1-1.85-1.82,1.8,1.8,0,0,1,1.85-1.85A1.85,1.85,0,0,1,20.27,54.05Z"/><path class="cls-2" d="M13.76,73.44a18.8,18.8,0,0,1-2.08.79c-.1,0-.58.27-.7.31s-.22.24-.65.24c-.12,0-1.77-1.12-1.89-1.75a.68.68,0,0,1,0-.12,1.53,1.53,0,0,1,.29-.07c.07,0,.12,0,.58.22a1.68,1.68,0,0,0,.69.14,7.35,7.35,0,0,0,2.11-.55c.15-.05,1-.41,1.09-.46a5.06,5.06,0,0,1,.62-.79,1.34,1.34,0,0,1,.31-.05c.74,0,2.9,1.71,2.9,2.16s-.12.65-.79.94-1.13,1.32-1.37,1.77c0,.08-1.6,2.28-1.75,2.45S12.18,79.8,12,80s-1.1,1-1.29,1.1-.58.39-.87.6a7.73,7.73,0,0,1-2,.77.25.25,0,0,1-.15-.24c0-.21,1.2-1.22,1.44-1.46A22.49,22.49,0,0,0,11.51,78c.6-.82,2.52-4,2.47-4.58Zm3.92,4.82L17.75,76l-.07-2.3c0-.46,0-.65,0-1.08,0-.24-.09-1.32-.09-1.54,0-.77,0-4.1-.48-5.06a2.73,2.73,0,0,0-.65-.79s-.24-.27-.29-.32l0-.07c.14,0,.79-.07.91-.07a2.4,2.4,0,0,1,1.2.29l.65.6c.36.21,1.32.91,1.32,1.41a6.52,6.52,0,0,1-.56,1.16,14.25,14.25,0,0,0-.36,3.62c0,.14-.09.72-.09.84s.07.91.09,1a1.79,1.79,0,0,0,.17.32,6.92,6.92,0,0,0,2.28-1.61c.65-.46,2.47-2.16,2.47-2.76,0-.12-.07-.19-.24-.46a.34.34,0,0,1,0-.14.61.61,0,0,1,.41-.17,2.78,2.78,0,0,1,.91.29c.22.14,1.51,1.29,1.51,1.85,0,.33-.19.38-.74.48,0,0-.46.16-.53.19-.26.09-1.34.93-1.58,1s-2.48,1.37-2.74,1.49-1,.39-1.15.46a2.33,2.33,0,0,0,1.05,1.15c.08.07.41.41.48.48l1.78,1.44c.14.12.86.53,1,.62s1.16.82,1.35.94,2.16,1.35,2.37,1.47c.44.16,1.2.45,1.2.93a.2.2,0,0,1-.16.19c-.34,0-.89.1-1.16.12L26.8,82c-.19,0-1.11-.17-1.27-.17a16.9,16.9,0,0,1-2.12-1.9c-.07,0-.86-.86-.88-.88-.41-.51-.46-.58-.77-.75a25,25,0,0,0-2.11-2.4.53.53,0,0,0-.39-.07c-.05.53-.05,2.59-.05,3.24s.15,3.41.15,4c0,1.61-.84,3.31-1.44,3.31-.43,0-.53-.31-.65-.69s-.7-1.23-2-2.31a10.9,10.9,0,0,1-1.44-1.77c0-.1.09-.27.26-.27a3.74,3.74,0,0,1,.63.32,8.39,8.39,0,0,0,2.69.76A4.12,4.12,0,0,0,17.63,81c0-.24.05-1,.05-1.2Z"/></g></g></svg>