<svg xmlns="http://www.w3.org/2000/svg" viewBox="0 0 36.89 84.89"><defs><style>.cls-1{fill:#7cac82;}.cls-2{fill:#595757;}</style></defs><title>資產 24</title><g id="圖層_2" data-name="圖層 2"><g id="手機直排"><path class="cls-1" d="M36.89,54.41A18.45,18.45,0,1,1,18.45,36,18.45,18.45,0,0,1,36.89,54.41Z"/><path class="cls-2" d="M13.77,8.64a19.84,19.84,0,0,1-2.09.79c-.1.05-.58.27-.7.31s-.21.24-.65.24c-.12,0-1.77-1.12-1.89-1.75a.68.68,0,0,1,0-.12A1.74,1.74,0,0,1,8.7,8c.07,0,.12,0,.58.22A1.68,1.68,0,0,0,10,8.4a7.51,7.51,0,0,0,2.12-.55c.14,0,1-.41,1.08-.46a5.06,5.06,0,0,1,.62-.79,1.34,1.34,0,0,1,.31,0c.75,0,2.91,1.71,2.91,2.16s-.12.65-.8.94S15.09,11,14.85,11.42c0,.08-1.61,2.29-1.76,2.45S12.18,15,12,15.17s-1.1,1-1.29,1.1-.58.39-.87.6a7.58,7.58,0,0,1-2,.77.27.27,0,0,1-.15-.24c0-.21,1.2-1.22,1.44-1.46a22.49,22.49,0,0,0,2.38-2.74c.6-.82,2.52-4,2.47-4.58Zm3.91,4.82.07-2.23-.07-2.3c0-.46,0-.65,0-1.08,0-.24-.09-1.32-.09-1.54,0-.77,0-4.1-.48-5.06a2.73,2.73,0,0,0-.65-.79s-.24-.27-.29-.32l0-.07c.14,0,.79-.07.91-.07a2.4,2.4,0,0,1,1.2.29l.65.6c.36.21,1.32.91,1.32,1.41a6.52,6.52,0,0,1-.56,1.16,14.25,14.25,0,0,0-.36,3.62c0,.14-.09.72-.09.84s.07.91.09,1a1.79,1.79,0,0,0,.17.32,6.92,6.92,0,0,0,2.28-1.61c.65-.46,2.47-2.16,2.47-2.76,0-.12-.07-.19-.24-.46a.34.34,0,0,1,0-.14.61.61,0,0,1,.41-.17,2.78,2.78,0,0,1,.91.29c.22.14,1.51,1.29,1.51,1.85,0,.33-.19.38-.74.48,0,0-.46.16-.53.19-.26.09-1.34.93-1.58,1.05s-2.48,1.37-2.74,1.49-1,.39-1.15.46A2.33,2.33,0,0,0,21.13,11c.08.07.41.41.48.48L23.39,13c.14.12.86.53,1,.62s1.16.82,1.35.94,2.16,1.35,2.37,1.47c.44.16,1.2.45,1.2.93a.2.2,0,0,1-.16.19c-.34.05-.89.1-1.15.12l-1.18,0c-.19,0-1.11-.17-1.27-.17a16.9,16.9,0,0,1-2.12-1.9c-.07,0-.86-.86-.88-.88-.41-.51-.46-.58-.77-.75a25,25,0,0,0-2.11-2.4.53.53,0,0,0-.39-.07c-.05.53-.05,2.59-.05,3.24s.15,3.41.15,4c0,1.61-.84,3.31-1.44,3.31-.43,0-.53-.31-.65-.69s-.7-1.23-2-2.31a10.9,10.9,0,0,1-1.44-1.77c0-.1.1-.27.26-.27a3.74,3.74,0,0,1,.63.32,8.39,8.39,0,0,0,2.69.76,4.12,4.12,0,0,0,.26-1.44c0-.24.05-1,.05-1.2Z"/><path class="cls-2" d="M7.36,37.49l.09,0a2.87,2.87,0,0,0,.75.17,5.63,5.63,0,0,0,2.45-1c0-.36.07-2.2.12-2.73a19.56,19.56,0,0,0,0-2.86c-.21,0-.31,0-1.15.36a.91.91,0,0,1-.74-.22,1.12,1.12,0,0,1-.68-.28c-.12-.1-.72-.48-.81-.58s0-.17.09-.17a1.31,1.31,0,0,1,.32.1,8.48,8.48,0,0,0,1,.12c.07,0,.38-.1.41-.1a6.61,6.61,0,0,0,1.56-.43c0-.29,0-1.94-.19-4a3.58,3.58,0,0,0-1.25-2.23l0-.1a2.75,2.75,0,0,1,1.2-.21,4.66,4.66,0,0,1,1.66.62c.72.58,1.15.91,1.15,1.27,0,.17-.31.87-.33,1A16.13,16.13,0,0,0,12.64,29a8,8,0,0,1,.93-.46c.08,0,.36.1.44.1.38,0,.81,0,.81.53,0,.17-.05.21-.45.64a.79.79,0,0,0-.48.17c-.08.05-.17.05-.39.05a3.41,3.41,0,0,1-.5.19l-.46.32c-.07.43-.36,4.84-.38,5.2.31-.12,1.61-.86,1.87-1a4,4,0,0,0,.55-.15l.1,0v0a14.21,14.21,0,0,1-2.07,1.94L11,37.9c-.1.09-1,.88-1.15,1s-.39.68-.46.77a.56.56,0,0,1-.26.1c-.31,0-.58-.48-.82-.67l-.5-.36a8.68,8.68,0,0,1-.48-.89Zm7.2.93A9.83,9.83,0,0,0,17,37.54l1.84-.87c.17-.07.87-.48,1-.55A6.39,6.39,0,0,0,21,35.57a2.86,2.86,0,0,1,1.1-.48c.05,0,.07,0,.15.09,0,.32,0,.32-.41.58,0,0-.41.38-.51.43a12.91,12.91,0,0,0-2.28,1.39c-.24.17-1.41.84-1.63,1C16.05,39.7,15.9,39.82,15.78,40s-.07.1-.17.1c-.28,0-.88-.58-1.1-.77a3.8,3.8,0,0,1-.58-.43,4.71,4.71,0,0,1-.09-.65.09.09,0,0,1,.12,0ZM14.49,31c.16.05.79.14,1,.21a5,5,0,0,0,.7.29,9.88,9.88,0,0,0,2.71-1.1c.07-.05.26-.48.36-.48.48,0,2.06,1.58,2.06,1.73a1.06,1.06,0,0,1-.36.6c-.07.14-.07.17-.19.26a4.11,4.11,0,0,1-.1.41,5.24,5.24,0,0,0-.33.74l.12.12c.12,0,.31.1.31.32s-.1.26-.86.48a19.1,19.1,0,0,0-2.48.57c-.12.07-.45.67-.57.67-.46,0-1-1.36-1.06-1.65A7.66,7.66,0,0,0,14.49,31Zm.26-2.69c.17,0,1.2,0,1.42,0s1.1-.16,1.2-.19l2.13-.45c.51-.12.75-.19,1.3-.34-.07-.26-.89-3.36-1.15-4.25a8,8,0,0,0-.87-1.41c0-.34.53-.39.77-.39.79,0,2.64,1.13,2.64,1.59,0,.19-.31,1-.31,1.12s.05,1.49.07,1.76l.1,1.27a14.41,14.41,0,0,0,3.16-1c.1,0,.53-.17.63-.22a2.46,2.46,0,0,0,1.13.17.46.46,0,0,1,.48.44c0,.28-.15.35-.77.57a3.82,3.82,0,0,1-.6.31c-.27,0-1.47.27-1.63.29a12,12,0,0,0-2.31.41,25.07,25.07,0,0,0,.53,3.19,21.18,21.18,0,0,0,1.25,3.14c.14-.21.91-1.89,1.1-2.25l0-.77c-.07-.14-.07-.17-.05-.26s.19-.05.29-.05,1,.55,1.22.65.63.72.75.79.28.12.28.17.08.29.1.33a1.26,1.26,0,0,1-.6.56,1.3,1.3,0,0,0-.48.48,3,3,0,0,1-.65.79c-.07.05-.91,1.63-1,1.75a9.94,9.94,0,0,0,1.53,2.28c.08.07.29.43.36.5s.56.6.68.68c.19-.12.24-.17.26-.27A5.15,5.15,0,0,0,28,38.11c0-.14,0-.77,0-.89a1.54,1.54,0,0,1,.09-.52c0-.17,0-.17.05-.22l.07,0A11.56,11.56,0,0,1,28.91,39c.17,1.8.19,2,.6,2.76a2.4,2.4,0,0,1,.24,1.06.51.51,0,0,1-.55.48,4.13,4.13,0,0,1-1.75-.75,20.28,20.28,0,0,1-1.8-2.32,3,3,0,0,0-.6-1.06c-.22-.26-.84-1.54-1-1.78-.12.15-.62.82-.72.92s-.45.33-.53.4a6.17,6.17,0,0,1-1,.8c-.09.07-.6.6-.74.69a1.37,1.37,0,0,1-.22.19l-1.61.89a2,2,0,0,1-.72.17l0,0,.1-.07c.07-.19.12-.22.45-.48a4.1,4.1,0,0,0,.41-.34c.24-.24,1-1,1.15-1.1s.1-.19.41-.5.48-.6.86-1.13a15.8,15.8,0,0,0,1.42-2.11,25.87,25.87,0,0,1-1.1-3c-.2-.7-1-3.75-1.18-4.37a35.68,35.68,0,0,0-3.94.93.17.17,0,0,1-.12,0,18.3,18.3,0,0,1-2.18-.89ZM18.25,34c.48-.22.72-1.37.72-1.8v-.89a12,12,0,0,0-1.24.41c-.05,0-.65.1-.77.14s-.36.08-.36.27c0,0,.48,1.56.69,2.09A3.5,3.5,0,0,0,18.25,34Zm9.17-9c-.29.14-.33.17-.41.17a11,11,0,0,1-1.75-.82,8.82,8.82,0,0,0-1.77-1,1.12,1.12,0,0,1-.36-.36c0-.16.38-.36.55-.36s1.41.22,1.65.22.34,0,.46.07a4.8,4.8,0,0,0,1.11.29A3.26,3.26,0,0,1,27.42,24.91Z"/><path class="cls-2" d="M20.27,54.05a1.88,1.88,0,0,1-1.82,1.82,1.85,1.85,0,0,1-1.85-1.82,1.8,1.8,0,0,1,1.85-1.85A1.85,1.85,0,0,1,20.27,54.05Z"/><path class="cls-2" d="M27.83,78.65c.36.14.41.33.65,1.22s.26,1,.46,1.85a5.7,5.7,0,0,0,.59,1.39l.51.51a5.33,5.33,0,0,1,.07.55.74.74,0,0,1-.7.72A4.88,4.88,0,0,1,26.75,84a6.56,6.56,0,0,1-1.58-1.49c-.82-.62-2.79-4.22-2.79-8.06,0-.36.05-1.94.07-2.28l.24-3.22a4.66,4.66,0,0,0,.08-.64c0-.1-.2-.56-.41-.56-.41,0-2.19.32-2.52.36s-1.2.34-1.39.39-.75.09-.87.12l-2.73.69a3.35,3.35,0,0,1-1.68.27c0,.09.19.45.19.53s-.15.67-.22,1a1.94,1.94,0,0,0-.05.53c0,.46-.31,4.06-.43,4.63l-.41,2a14.19,14.19,0,0,1-1.85,4c-.67.81-1.92,2.2-2.47,2.2a.48.48,0,0,1-.21-.07l0-.12A9.84,9.84,0,0,1,8.56,83a11,11,0,0,0,2-4.53A24.4,24.4,0,0,0,11.29,73c0-2.21-.07-2.52-.69-3.67-.2-.34-.22-.36-.41-.7a.28.28,0,0,1-.1-.21c0-.1.05-.12.17-.22l.41,0a4.17,4.17,0,0,1,1.2.33,1.11,1.11,0,0,0,.48.34c.91-.19,4.9-1.1,5.71-1.25A25.19,25.19,0,0,0,22,66.7c.12-.1.6-.63.74-.63.87,0,3,1.8,3,2.38,0,.19,0,.21-.44.45a2.23,2.23,0,0,0-1.08,1.56,16.51,16.51,0,0,0-.52,4.42,12,12,0,0,0,1.65,5.93,4.81,4.81,0,0,0,2.16,2c.34,0,.44-1.68.44-1.92s-.13-1.49-.13-1.73a3.39,3.39,0,0,1,0-.48ZM14.46,78.5l-.91-3a.17.17,0,0,0-.14-.14v0l0-.24c.08,0,.1-.05.15-.05s.84.36,1,.36a12.83,12.83,0,0,0,2-.5,2.78,2.78,0,0,0-.24-1.15,5.42,5.42,0,0,0-.43-.41c-.21,0-1.25.12-1.44.12s-.24,0-.24-.24.22-.34.84-.65A12.41,12.41,0,0,0,18.37,70c.15-.17.12-.26.08-.46.12-.12.16-.14.6-.21C19.67,69.65,21,70.42,21,71a.38.38,0,0,1-.38.38,3.4,3.4,0,0,0-1.92.56c-.12.07-1.08.57-1.25.62s-.19.17-.22.24a2.69,2.69,0,0,1,1.23,1.22.59.59,0,0,0-.08.27c0,.12.53-.07.68-.12s.5-.53.6-.53c.76,0,2.16.86,2.16,1.51,0,.17,0,.19-.41.43a11,11,0,0,0-1,1.18c0,.48-.05.5-.48.67a9.58,9.58,0,0,0-2,.67,13.52,13.52,0,0,0-.21,1.4c0,.12-.12.74-.12.86a14.6,14.6,0,0,0,2.59-.74,2.31,2.31,0,0,0-.39-.92,2.38,2.38,0,0,1-.24-.55.35.35,0,0,1,.22-.09,6.71,6.71,0,0,1,1.92,1.39c.46.33,1,.69,1,2.16,0,.12,0,.65-.29.65-.57,0-1.27-1.13-1.41-1.37s-.29-.55-.41-.55-5,1.82-5.5,2.06c-.17.1-.79.6-.93.7a3.09,3.09,0,0,1-1.49-2.09,1.14,1.14,0,0,1,.07-.19.94.94,0,0,1,.65.12,4.89,4.89,0,0,0,.93.21,18.2,18.2,0,0,0,2.21-.52s.05-.32.07-.49.08-.52.08-.62,0-1,0-1.13c-.09,0-.5.1-.57.1-.34,0-.51.55-.6.91-.34,0-.41-.1-1-.67Zm.65-2.44a6.2,6.2,0,0,1,.53,1.51,1.65,1.65,0,0,0,.43.09,5.93,5.93,0,0,0,.65-.19,3.85,3.85,0,0,0,.05-.5c0-.12-.05-.65-.05-.75a2,2,0,0,0,0-.6c-.14,0-.77.22-.94.29s-.5,0-.57.07Zm3.12-.84a3.74,3.74,0,0,0-.14.88c0,.15-.05.84-.05,1s.31,0,.55-.1.38-.19.5-.79c0-.17.27-.82.29-1a2.64,2.64,0,0,0,0-.36A5.47,5.47,0,0,0,18.23,75.22Z"/></g></g></svg>