<svg xmlns="http://www.w3.org/2000/svg" viewBox="0 0 36.89 82.95"><defs><style>.cls-1{fill:#edd037;}.cls-2{fill:#595757;}</style></defs><title>資產 29</title><g id="圖層_2" data-name="圖層 2"><g id="手機直排"><path class="cls-1" d="M36.89,54.41A18.45,18.45,0,1,1,18.45,36,18.45,18.45,0,0,1,36.89,54.41Z"/><path class="cls-2" d="M13.77,8.64a19.84,19.84,0,0,1-2.09.79c-.1.05-.58.27-.7.31s-.21.24-.64.24c-.12,0-1.78-1.12-1.9-1.75a.68.68,0,0,1,0-.12A1.74,1.74,0,0,1,8.7,8c.07,0,.12,0,.58.22a1.69,1.69,0,0,0,.7.14,7.53,7.53,0,0,0,2.11-.55c.14,0,1-.41,1.08-.46a5.06,5.06,0,0,1,.62-.79,1.44,1.44,0,0,1,.31,0c.75,0,2.91,1.71,2.91,2.16s-.12.65-.79.94S15.09,11,14.85,11.42c0,.08-1.61,2.29-1.75,2.45S12.18,15,12,15.17s-1.11,1-1.3,1.1-.58.39-.86.6a7.84,7.84,0,0,1-2,.77.27.27,0,0,1-.15-.24c0-.21,1.21-1.22,1.45-1.46a23.91,23.91,0,0,0,2.37-2.74c.6-.82,2.52-4,2.47-4.58Zm3.91,4.82.07-2.23-.07-2.3c0-.46,0-.65,0-1.08,0-.24-.1-1.32-.1-1.54,0-.77,0-4.1-.48-5.06a2.73,2.73,0,0,0-.65-.79s-.24-.27-.29-.32l0-.07c.14,0,.79-.07.91-.07a2.4,2.4,0,0,1,1.2.29c.22.19.62.57.65.6.36.21,1.32.91,1.32,1.41a7.23,7.23,0,0,1-.55,1.16,13.35,13.35,0,0,0-.36,3.62c0,.14-.1.72-.1.84s.07.91.1,1a1.35,1.35,0,0,0,.16.32,6.82,6.82,0,0,0,2.28-1.61c.65-.46,2.48-2.16,2.48-2.76,0-.12-.08-.19-.24-.46a.24.24,0,0,1,0-.14.61.61,0,0,1,.41-.17,2.78,2.78,0,0,1,.91.29c.22.14,1.51,1.29,1.51,1.85,0,.33-.19.38-.74.48l-.53.19c-.26.09-1.34.93-1.58,1.05S21.5,9.31,21.23,9.43s-1,.39-1.15.46A2.3,2.3,0,0,0,21.14,11c.07.07.4.41.48.48L23.39,13c.15.12.87.53,1,.62s1.15.82,1.34.94S27.88,15.87,28.1,16c.43.16,1.2.45,1.2.93a.21.21,0,0,1-.17.19c-.34.05-.89.1-1.15.12l-1.18,0c-.19,0-1.1-.17-1.27-.17a16.53,16.53,0,0,1-2.11-1.9c-.08,0-.87-.86-.89-.88-.41-.51-.46-.58-.77-.75a22.56,22.56,0,0,0-2.11-2.4.52.52,0,0,0-.39-.07c0,.53,0,2.59,0,3.24s.14,3.41.14,4c0,1.61-.84,3.31-1.44,3.31-.43,0-.53-.31-.65-.69s-.69-1.23-2-2.31a11.49,11.49,0,0,1-1.44-1.77c0-.1.1-.27.27-.27a4.08,4.08,0,0,1,.62.32,8.39,8.39,0,0,0,2.69.76,3.9,3.9,0,0,0,.26-1.44c0-.24.05-1,.05-1.2Z"/><path class="cls-2" d="M7.36,37.49l.09,0a2.87,2.87,0,0,0,.75.17,5.63,5.63,0,0,0,2.45-1c0-.36.07-2.2.12-2.73a19.56,19.56,0,0,0,0-2.86c-.21,0-.31,0-1.15.36a.93.93,0,0,1-.74-.22,1.07,1.07,0,0,1-.67-.28c-.12-.1-.72-.48-.82-.58s0-.17.1-.17a1.39,1.39,0,0,1,.31.1,8.48,8.48,0,0,0,1,.12,4.13,4.13,0,0,0,.41-.1,6.61,6.61,0,0,0,1.56-.43c0-.29,0-1.94-.19-4a3.53,3.53,0,0,0-1.25-2.23l0-.1a2.72,2.72,0,0,1,1.2-.21,4.69,4.69,0,0,1,1.65.62c.72.58,1.16.91,1.16,1.27,0,.17-.32.87-.34,1A16.13,16.13,0,0,0,12.64,29a7.41,7.41,0,0,1,.94-.46c.07,0,.36.1.43.1.38,0,.81,0,.81.53,0,.17,0,.21-.45.64a.82.82,0,0,0-.48.17c-.08.05-.17.05-.39.05a3.41,3.41,0,0,1-.5.19l-.46.32c-.07.43-.36,4.84-.38,5.2.31-.12,1.61-.86,1.87-1a4,4,0,0,0,.55-.15l.1,0v0a14.66,14.66,0,0,1-2.06,1.94L11,37.9c-.09.09-1,.88-1.15,1s-.39.68-.46.77a.56.56,0,0,1-.26.1c-.31,0-.58-.48-.82-.67l-.5-.36a8.68,8.68,0,0,1-.48-.89Zm7.2.93A9.83,9.83,0,0,0,17,37.54l1.85-.87c.16-.07.86-.48,1-.55A6.39,6.39,0,0,0,21,35.57a2.92,2.92,0,0,1,1.1-.48c.05,0,.08,0,.15.09,0,.32,0,.32-.41.58,0,0-.41.38-.5.43a12.22,12.22,0,0,0-2.28,1.39c-.24.17-1.42.84-1.64,1C16.05,39.7,15.9,39.82,15.78,40s-.07.1-.16.1c-.29,0-.89-.58-1.11-.77a3.69,3.69,0,0,1-.57-.43,4.27,4.27,0,0,1-.1-.65.09.09,0,0,1,.12,0ZM14.49,31c.17.05.79.14,1,.21a5,5,0,0,0,.7.29,9.75,9.75,0,0,0,2.71-1.1c.07-.05.26-.48.36-.48.48,0,2.06,1.58,2.06,1.73a1.06,1.06,0,0,1-.36.6c-.07.14-.07.17-.19.26s-.07.36-.09.41a5.61,5.61,0,0,0-.34.74l.12.12c.12,0,.31.1.31.32s-.09.26-.86.48a18.57,18.57,0,0,0-2.47.57c-.12.07-.46.67-.58.67-.46,0-1-1.36-1.06-1.65A7.66,7.66,0,0,0,14.49,31Zm.26-2.69c.17,0,1.2,0,1.42,0a12.11,12.11,0,0,0,1.2-.19l2.13-.45c.51-.12.75-.19,1.3-.34-.07-.26-.89-3.36-1.15-4.25a8,8,0,0,0-.87-1.41c0-.34.53-.39.77-.39.79,0,2.64,1.13,2.64,1.59,0,.19-.31,1-.31,1.12s.05,1.49.07,1.76l.1,1.27a14.78,14.78,0,0,0,3.17-1c.09,0,.52-.17.62-.22a2.49,2.49,0,0,0,1.13.17.46.46,0,0,1,.48.44c0,.28-.15.35-.77.57a3.43,3.43,0,0,1-.6.31c-.26,0-1.46.27-1.63.29a12,12,0,0,0-2.31.41,29.31,29.31,0,0,0,.53,3.19,22.33,22.33,0,0,0,1.25,3.14c.14-.21.91-1.89,1.1-2.25l0-.77c-.07-.14-.07-.17-.05-.26s.19-.05.29-.05,1,.55,1.22.65.63.72.75.79.29.12.29.17.07.29.09.33a1.22,1.22,0,0,1-.6.56,1.3,1.3,0,0,0-.48.48,3,3,0,0,1-.65.79c-.07.05-.91,1.63-1,1.75a9.65,9.65,0,0,0,1.54,2.28c.07.07.28.43.36.5a8.59,8.59,0,0,0,.67.68c.19-.12.24-.17.26-.27A5.15,5.15,0,0,0,28,38.11c0-.14,0-.77,0-.89a1.54,1.54,0,0,1,.09-.52c0-.17,0-.17.05-.22l.07,0A11,11,0,0,1,28.91,39a5.7,5.7,0,0,0,.6,2.76,2.4,2.4,0,0,1,.24,1.06.51.51,0,0,1-.55.48,4.18,4.18,0,0,1-1.75-.75,21.51,21.51,0,0,1-1.8-2.32,3,3,0,0,0-.6-1.06c-.22-.26-.84-1.54-1-1.78-.12.15-.62.82-.72.92s-.45.33-.52.4a6.69,6.69,0,0,1-1,.8c-.09.07-.6.6-.74.69a1,1,0,0,1-.22.19l-1.6.89a2.08,2.08,0,0,1-.72.17l0,0,.1-.07c.07-.19.12-.22.45-.48a4.1,4.1,0,0,0,.41-.34c.24-.24,1-1,1.15-1.1s.1-.19.41-.5.48-.6.87-1.13a16.56,16.56,0,0,0,1.41-2.11,25.87,25.87,0,0,1-1.1-3c-.19-.7-1-3.75-1.18-4.37a35.06,35.06,0,0,0-3.93.93.19.19,0,0,1-.12,0,17.73,17.73,0,0,1-2.19-.89ZM18.26,34c.48-.22.72-1.37.72-1.8v-.89a11.4,11.4,0,0,0-1.25.41c-.05,0-.65.1-.77.14s-.36.08-.36.27c0,0,.48,1.56.7,2.09A3.7,3.7,0,0,0,18.26,34Zm9.16-9c-.28.14-.33.17-.4.17a10.72,10.72,0,0,1-1.76-.82,8.82,8.82,0,0,0-1.77-1,1.12,1.12,0,0,1-.36-.36c0-.16.38-.36.55-.36s1.42.22,1.66.22.33,0,.45.07a4.8,4.8,0,0,0,1.11.29A3.26,3.26,0,0,1,27.42,24.91Z"/><path class="cls-2" d="M20.27,54.05a1.88,1.88,0,0,1-1.82,1.82,1.85,1.85,0,0,1-1.85-1.82,1.8,1.8,0,0,1,1.85-1.85A1.85,1.85,0,0,1,20.27,54.05Z"/><path class="cls-2" d="M17.49,80a.3.3,0,0,1,0-.15c0-.29,0-1.46,0-1.73,0-.07,0-.64,0-.74v-.62l.1-1.92c0-.19-.05-1.35-.1-1.59-.82-.09-2.09.36-2.93.36a5.74,5.74,0,0,1-2.25-1.46c0-.12.12-.15.19-.15s1.27.22,1.39.22l1.25,0c.31,0,1.63-.24,1.92-.24a.61.61,0,0,0,.48-.12c0-.16,0-2.2,0-2.52A13.6,13.6,0,0,0,17,66.5c-.07-.09-.33-.6-.4-.67-.24-.26-.63-.67-.63-.86a.33.33,0,0,1,.36-.36,3.57,3.57,0,0,1,2.47.84,15.43,15.43,0,0,1,1.47,1,.52.52,0,0,1,.24.43c0,.29-.55,1.51-.6,1.78a25.68,25.68,0,0,0-.15,3,4.5,4.5,0,0,0,1-.14c.19,0,1.08-.5,1.15-.5a4.23,4.23,0,0,1,1.92.38,1,1,0,0,1,.58.89,4.83,4.83,0,0,1-1.8.55l-1.18.07c-.14,0-1,.17-1.17.17a2.43,2.43,0,0,0-.6,0v.48l-.07,2.49c0,.29-.1,1.54-.1,1.78s-.07.87-.07,1-.07.86-.07,1,.16.09.69.09l1.66,0,.81,0L25,80a.59.59,0,0,0,.24-.09.93.93,0,0,1,.6-.22c.58,0,2.79,1.37,2.79,2.14a.53.53,0,0,1-.58.52,1.64,1.64,0,0,1-.91-.26.43.43,0,0,0-.22-.07l-2-.65c-.15,0-.8-.17-.92-.22s-2.61-.31-2.76-.31a26.52,26.52,0,0,0-5.2.38l-1.35.27c-.21,0-1.17.38-1.39.41a6.68,6.68,0,0,0-2.28.77l-.1,0c-.09.15-.17.2-.29.2-.5,0-.74-.22-1.53-.87a3.42,3.42,0,0,1-1-1A.6.6,0,0,1,8,80.79c0-.17.19-.2.31-.22l1.08.29c.05,0,.72.07.91.07.39,0,2-.14,2.36-.14a11.46,11.46,0,0,0,1.89-.27c.46-.12,2.55-.29,3-.41Z"/></g></g></svg>