<svg xmlns="http://www.w3.org/2000/svg" viewBox="0 0 30.76 70.67"><defs><style>.cls-1{fill:#edd037;}.cls-2{fill:#595757;}</style></defs><g id="圖層_2" data-name="圖層 2"><g id="妖怪資料卡"><path class="cls-1" d="M30.76,45.38A15.38,15.38,0,1,1,15.38,30,15.38,15.38,0,0,1,30.76,45.38Z"/><path class="cls-2" d="M24.59,16.5c-.06.08-2,1.56-3.12,1.56A9.92,9.92,0,0,1,20,17.68l-1.9-.6c-.48-.16-3.21-1.32-3.29-1.34l-2-.78a4.71,4.71,0,0,0-2-.34,6.42,6.42,0,0,0-2.94.84c-.66.42-.74.46-1,.46s-.32-.16-.32-.34a5,5,0,0,1,.34-1.31.53.53,0,0,1,.44-.44c.08,0,.32.2.38.24a1.86,1.86,0,0,0,.48.06.87.87,0,0,0,.78-.4c.1-.1.6-.46.68-.56a2.11,2.11,0,0,0,.42-.66c0-.4-.28-.52-.78-.74a1.57,1.57,0,0,1-.7-1.06c.14-.42.68-2,.66-2.16-.22,0-.28,0-.7.22a2.85,2.85,0,0,1-.8.2s-1.12-.34-1.12-.58c0-.06,0-.18.14-.18a4,4,0,0,0,.48,0,2.87,2.87,0,0,0,1.54-.7C9.2,7,9.24,7,9.46,7s.5.1,1.18.54c.12.08.66.36.74.44a.66.66,0,0,1,.16.44.35.35,0,0,1-.18.34c-.22.14-.26.16-.32.28a5.19,5.19,0,0,0-1.26,1.8c0,.24,1,.82,1.12.94a2.8,2.8,0,0,1,.74,1c0,.34-.24.38-.42.42a3.92,3.92,0,0,0-.94.64,9.07,9.07,0,0,1,3.66.68c.1,0,3.69,1,4.51,1.19.18,0,3.24.48,3.64.48a6.68,6.68,0,0,1,2.52.18ZM7.78,2.16a6.34,6.34,0,0,1,2.92.74A3.25,3.25,0,0,1,11,4.06a.53.53,0,0,1-.24.48c-.46,0-.5,0-.8-.28-.12-.1-.68-.44-.78-.54s-.52-.38-.6-.46A2.07,2.07,0,0,0,7.9,2.7a.51.51,0,0,1-.32-.42A.67.67,0,0,1,7.78,2.16ZM13,.82,13,.7a.66.66,0,0,1,.26-.08l.56.28c.1,0,.5.32.58.36l.18,0c.52,0,3.57-.6,3.69-.6.5,0,.58-.1,1.26-.6,0,0,.06,0,.1,0,.26,0,2.2,1.5,2.2,1.86a5.55,5.55,0,0,1-.52,1,12,12,0,0,0-.5,1.5c-.14.48-.4,1.47-.54,2,.06,0,.9,0,1.1-.18s.26-.3.38-.3c.34,0,1,.86,1.26,1.16.64.78.66.82.66,1.1a3.72,3.72,0,0,1-.44.7c-.24.46-.94,3.54-1.08,3.84,0,.06-.5,1.18-.56,1.24a1.85,1.85,0,0,1-1.4.9c-.2,0-.22-.1-.3-.94a1.41,1.41,0,0,0-.36-.68,1.27,1.27,0,0,1-.32-.56v-.08c.18,0,1,.14,1.12.14A11.07,11.07,0,0,0,21.61,8a1.21,1.21,0,0,0-.38-1l-.34,0c-.18,0-1.08.14-1.36.16-.6.06-4.06.6-5.17.92a.65.65,0,0,1-.36,0l-.32,0c0,.7.54,4.3.54,4.42,0,.94,0,1.2-.24,1.2s-.4-.2-.78-.7-.34-.5-.34-1.16c0-.12,0-.14,0-.44L12.7,9.59c0-.24-.22-1.36-.3-1.66,0-.12-.44-.6-.44-.72A.18.18,0,0,1,12.14,7a2.8,2.8,0,0,1,.78.32c.06,0,.3.26.36.26s1.12-.26,1.3-.3a1.4,1.4,0,0,0-.2-.58,1.55,1.55,0,0,1-.16-.68A26.58,26.58,0,0,0,14,3.12a3.44,3.44,0,0,0-.72-1.92ZM15.1,9.93a4,4,0,0,0-.36-1.14.42.42,0,0,1-.12-.36,2.05,2.05,0,0,1,.62.16l.45.28a3.24,3.24,0,0,0,.88-.12c1.24-.28,1.38-.28,1.8-.7a.49.49,0,0,1,.28-.12c.52,0,1.72.78,1.72,1.14,0,.2-.1.3-.36.58a6.3,6.3,0,0,0-.7,1.14c0,.1.16.48.16.56a.32.32,0,0,1-.34.32l-.68-.06a6.47,6.47,0,0,0-2,.36c-.1.48-.1.52-.38.64-.16-.1-.64-.52-.66-.68Zm3.39-8.79-1.66.32c-.14,0-1.73.34-1.89.36a.48.48,0,0,0,0,.18,25.09,25.09,0,0,0,.36,2.82c0,.13.19.8.21.93s.08,1,.12,1.18a.46.46,0,0,1,.05.14l.75,0a.91.91,0,0,0,.16-.36c0-.12,0-.64,0-.74s-.06-.42-.06-.48a6.35,6.35,0,0,0-.24-2.15,1.55,1.55,0,0,1-.16-.68.27.27,0,0,1,.2-.1,3.28,3.28,0,0,1,.82.48l.5.14c.16,0,1.7-.34,1.78-.38s.18-.68.18-.88a.86.86,0,0,0-.44-.74ZM16.83,11.23c.1-.06.64-.26.74-.32.34,0,.34,0,.52-.46,0-.12.26-.62.3-.72a2.2,2.2,0,0,0,.08-.62c0-.1,0-.16-.22-.16a7.18,7.18,0,0,0-.7.16c-.68.08-1.46.16-1.46.38s.24,1.26.28,1.5c0,0,.06.26.12.3ZM19.29,3.7l0-.14a9.84,9.84,0,0,0-1.16.26c-.3,0-.56,0-.56.3s0,1.83-.06,2.15a1.15,1.15,0,0,1-.14.42,14.6,14.6,0,0,0,1.48-.16.42.42,0,0,0,.06-.26V5.81Z"/><path class="cls-2" d="M7.12,24.48l.94,0,.64,0a5.69,5.69,0,0,1,1.32.44,1.28,1.28,0,0,1,.36,1c0,.32-.24.36-.28.36a8,8,0,0,1-3.32-1.68C6.82,24.54,6.88,24.48,7.12,24.48Zm.26,8.14c.4.23.44.26.58.26h.22c.16-.09.24-.16.44-.61L8.88,32c0-.13,1-1.77,1-1.95s.16-.46.2-.54.52-1.06.56-1.16c.12-.32.12-.36.18-.5s.22.16.22.22c0,.42-1.22,4.44-1.24,4.54-.06.39-.18,1-.18,1.23s.06.36.06.42c0,.58,0,.78-.3.78A10.82,10.82,0,0,1,8,34.39a10.06,10.06,0,0,1-.42-1.08,3.3,3.3,0,0,1-.26-.67ZM9.24,19.71a8.06,8.06,0,0,1,2,.64,2,2,0,0,1,.46,1.19.46.46,0,0,1-.36.4,3,3,0,0,1-1.08-.47,4.94,4.94,0,0,1-.58-.2l-1-.7A7.63,7.63,0,0,0,8.18,20C8.16,19.71,8.28,19.71,9.24,19.71ZM16.67,23l.18.22a2.21,2.21,0,0,1,.68.44,4.86,4.86,0,0,1,.16,1.06,12.41,12.41,0,0,0,1.46-.14c.36-.06.4-.06.4-.44v-.78c0-.1-.16-.5-.16-.59s.22-.13.34-.13,1.46.72,1.46,1L21,24c-.14.12-.14.14-.16.24a1.31,1.31,0,0,0,.46-.12l.82,0c.76,0,.8.18.88.58-.36.36-.48.36-1.56.36-.74,0-.82,0-.9.28s-.28,1.32-.36,1.54c-.16.5-.44.52-.5.52s-.36-.18-.42-.18c-.24,0-1.22.14-1.42.14s-.38.26-.4.26-.22-.14-.36-.46a3,3,0,0,1-.32-1,2.31,2.31,0,0,0-.12-.48l-.76,0c-.06,0-.89-.24-.91-.26a3.7,3.7,0,0,0-.46,0c-.08.26-.28,2.2-.4,2.6a7.6,7.6,0,0,1-.3,1.16c-.16.32-.18.92-.32,1.24l-.78,1.71-.32.58c-.08.08-.36.5-.42.58a3.11,3.11,0,0,1-.82.74L11.1,34c.06-.16.1-.24.5-1.07.06-.11.2-.82.28-.93a9.94,9.94,0,0,0,.5-1.65c0-.06.36-1.3.36-1.42a1.76,1.76,0,0,1,0-.28,1.5,1.5,0,0,0,.1-.52c.06-.48.36-2.64.4-3.08s0-.84,0-1.06c0-.72,0-.78-.14-1.08a1.55,1.55,0,0,0,0-.32,6.43,6.43,0,0,1-.36-.68c0-.29.22-.32.38-.35s.44.12.5.16.68.51.78.56a.42.42,0,0,0,.2,0c.22,0,1.15-.11,1.33-.11s.92-.16,1.06-.16c.3,0,.36,0,.36-.29,0-1.45,0-1.59-.48-2.39-.06-.08-.4-.36-.4-.46s0-.1,0-.22a3.86,3.86,0,0,1,1-.16,3,3,0,0,1,2.12,1.2c-.06.12-.42.64-.46.76A3.62,3.62,0,0,0,19,21.88a12.53,12.53,0,0,0,1.68-.23A10.13,10.13,0,0,1,22,21.23a7.8,7.8,0,0,1,1.34.36.69.69,0,0,1,.26.48.46.46,0,0,1-.1.29,1.9,1.9,0,0,1-.58.14c-.1,0-.7-.08-.76-.08l-.5,0-1.14,0a4.67,4.67,0,0,1-.52.08l-.8.06-.36,0h-.42c-.36,0-2.16.33-2.26.33Zm-1.08,7.36a1.39,1.39,0,0,1,.5-.08,1.66,1.66,0,0,1,1.14.32,3.75,3.75,0,0,0,.36.24,1.28,1.28,0,0,0,.5.42c0-.12.72-1.22.82-1.46a1.13,1.13,0,0,0,.16-.76,6.82,6.82,0,0,0-.92.1c-1.2.52-1.32.58-1.54.58a4.79,4.79,0,0,1-.94-.28l-.45-.26v-.08a9.2,9.2,0,0,0,1.67-.22c.3-.1,1.72-.44,2-.58a8.57,8.57,0,0,1,.92-.42h.08a3.68,3.68,0,0,1,1.6,1c-.12.58-.12.6-.44.8a13,13,0,0,0-1.78,2.36,1,1,0,0,1,.36.23c.08.08,2,.94,2.36,1.12s1.3.64,1.48.78.64.5.64.62-1,.32-1.14.32a6.86,6.86,0,0,1-2-.42,6.18,6.18,0,0,1-1.26-1c-.16-.16-.92-.76-1.06-.9-.22.06-1.4,1.14-1.7,1.3a10.74,10.74,0,0,1-2.85.8.19.19,0,0,1-.18-.08c.06-.14.3-.26.52-.38a9.29,9.29,0,0,0,3.13-2.61,4.83,4.83,0,0,0-1.94-1.38ZM15.26,23a3.79,3.79,0,0,0-.66,2.1c.26,0,2,0,2-.24a3.17,3.17,0,0,0-.14-.4c-.16-.86-.16-.92-.58-1.34a.48.48,0,0,1-.12-.22Zm3.83,3.5a3.64,3.64,0,0,0,.34-1.1s0-.12,0-.18a9,9,0,0,0-1.52.24,5.66,5.66,0,0,0-.14,1.06c0,.1.06.12.12.14A7.76,7.76,0,0,0,19.09,26.54Z"/><path class="cls-2" d="M16.91,45.07a1.57,1.57,0,0,1-1.52,1.52,1.54,1.54,0,0,1-1.55-1.52,1.51,1.51,0,0,1,1.55-1.54A1.54,1.54,0,0,1,16.91,45.07Z"/><path class="cls-2" d="M10.86,66.15a4.75,4.75,0,0,0,1.24-.66,2.9,2.9,0,0,1,1.56-.64c.06.19,0,.26-.5.74-.18.16-1.18,1.22-1.34,1.3a5,5,0,0,0-1,.84c-.06.06-.44.34-.5.4s-.22.24-.26.26c-.2.2-1.18.9-1.34,1.08s-.7,1.2-.92,1.2a2.78,2.78,0,0,1-1.2-.88c-.16-.28-.52-1.16-.52-1.16a1.54,1.54,0,0,1,0-.3,1.48,1.48,0,0,1,.24,0,.74.74,0,0,1,.38.16.58.58,0,0,0,.32.1,7.07,7.07,0,0,0,2.2-1.26,4.77,4.77,0,0,0,.14-1.46c0-.06.06-.56.06-.66,0-.85,0-1.85,0-2s0-.38-.12-.38-.44.1-.52.1-.62.08-.72.08a13.57,13.57,0,0,1-1.64-.36c-.1,0-.14-.08-.12-.2a13.41,13.41,0,0,1,1.52-.26c.2-.06,1.44-.5,1.54-.56a1,1,0,0,0,.08-.4c0-.12-.06-.68-.06-.8a19.2,19.2,0,0,0-.26-3,7.78,7.78,0,0,0-.88-.94c.1-.16.16-.28.58-.28a2.68,2.68,0,0,1,1.9.8,7.06,7.06,0,0,1,.64.42,1.57,1.57,0,0,1,.2.3c0,.1,0,.12-.14.18a4.07,4.07,0,0,1-.22.64C11.22,58.7,11,60.78,11,61a2.71,2.71,0,0,1,.6-.28c.48,0,1.48.06,1.48.78,0,.2-.06.24-.58.48a9.3,9.3,0,0,0-1.64.6c0,.12-.06.66-.06.76,0,.44,0,2.33,0,2.71ZM18.51,64c0,.06-.2.62-.22.72a5.6,5.6,0,0,1-.62,1.63.35.35,0,0,1-.26.1c-.26,0-.3-.26-.3-.42s0-.2.12-1c0-.27.2-2.24.24-2.66l-.06-.06L16,63a1.43,1.43,0,0,0-.3.22c0,.1,0,1.54,0,1.76,0,.89.1,2.57.6,2.87a5.8,5.8,0,0,0,2.1.52l1.7,0c.18,0,2.42-.18,2.64-.5A1.58,1.58,0,0,0,23,67c0-.12.26-.74.28-.86s.12-1,.14-1a.38.38,0,0,1,.22-.11c.36,0,.4.7.4.88a5,5,0,0,0,.56,2c.28.24.62.54.62.86,0,.68-1.68.94-1.82.94l-1.32,0c-.06,0-.26,0-.36,0s-.82-.06-1-.06L19,69.53,16.37,69a3.17,3.17,0,0,1-1.05-.62,2.57,2.57,0,0,1-.72-1.72l-.18-2.29a3.75,3.75,0,0,1,0-.42c-.08,0-.4.2-.46.22-.12.2-.18.27-.3.27-.36,0-1.68-.61-1.68-1,0-.14.16-.18.26-.18l.66,0c.24,0,.3,0,.94-.34s.6-.3.6-.52-.12-2.7-.16-2.88a8.1,8.1,0,0,0-.7-1.26l0-.06.32-.08c.66,0,.88,0,1.12.26.08.1.57.6.65.7s.42.36.48.44a4.52,4.52,0,0,1-.2,1.06,4.14,4.14,0,0,0-.16,1.3c.22-.06,1.16-.48,1.36-.54l.38-.16c0-.12.1-1.64.1-1.7s0-.44,0-.52.08-1.7.08-2c0-1,0-1.12-.08-1.3s-.48-.72-.48-.77a.2.2,0,0,1,.14-.19,4,4,0,0,1,.56-.18c.58.1,2.22,1.4,2.22,1.88a5.41,5.41,0,0,1-.34.78c-.06.16-.5,2.68-.5,2.74a2.69,2.69,0,0,0,0,.38,3.09,3.09,0,0,0,1.06-.62,1.61,1.61,0,0,1,.82-.7c.12.12,2.52,1.54,2.52,2.06,0,.12,0,.12-.28.24-.6.28-1.8,3.09-2.14,3.57-1,1.34-1.3,1.34-1.62,1.3-.24-.69-.28-.8-.46-1a1.66,1.66,0,0,1-.48-.71l0-.09c.14,0,.7.16.82.16a.51.51,0,0,0,.44-.23c0-.08.32-.68.34-.72a8.83,8.83,0,0,0,.42-2.48.49.49,0,0,0-.1-.34,5.24,5.24,0,0,0-1.34.46c-.24.12-.26.28-.34.66Z"/></g></g></svg>