<svg xmlns="http://www.w3.org/2000/svg" viewBox="0 0 36.89 82.95"><defs><style>.cls-1{fill:#edd037;}.cls-2{fill:#595757;}</style></defs><title>資產 31</title><g id="圖層_2" data-name="圖層 2"><g id="手機直排"><path class="cls-1" d="M36.89,54.41A18.45,18.45,0,1,1,18.45,36,18.45,18.45,0,0,1,36.89,54.41Z"/><path class="cls-2" d="M29.49,19.78c-.07.09-2.35,1.87-3.75,1.87a12.14,12.14,0,0,1-1.82-.46l-2.28-.72c-.58-.19-3.84-1.58-3.94-1.6l-2.42-.94a5.63,5.63,0,0,0-2.35-.41,7.74,7.74,0,0,0-3.53,1c-.79.5-.89.55-1.15.55s-.39-.19-.39-.41a6,6,0,0,1,.41-1.56.65.65,0,0,1,.53-.53c.1,0,.38.25.46.29a2.07,2.07,0,0,0,.57.08,1,1,0,0,0,.94-.49c.12-.12.72-.55.81-.67a2.43,2.43,0,0,0,.51-.79c0-.48-.34-.62-.94-.89a1.86,1.86,0,0,1-.84-1.27,25.46,25.46,0,0,0,.79-2.59c-.26,0-.33,0-.84.26a3.14,3.14,0,0,1-1,.24S8,10.34,8,10.06c0-.08,0-.22.17-.22a3.71,3.71,0,0,0,.57,0A3.36,3.36,0,0,0,10.55,9c.48-.6.53-.64.79-.64s.6.12,1.42.64c.14.1.79.44.89.53a.8.8,0,0,1,.19.53.43.43,0,0,1-.22.41c-.26.17-.31.19-.38.33A6.21,6.21,0,0,0,11.73,13c0,.29,1.15,1,1.34,1.13A3.42,3.42,0,0,1,14,15.36c0,.41-.29.46-.5.51a4.47,4.47,0,0,0-1.13.76,11,11,0,0,1,4.39.82c.12.05,4.42,1.2,5.4,1.42.22,0,3.89.57,4.37.57,2.09,0,2.52,0,3,.22ZM9.33,2.59a7.56,7.56,0,0,1,3.5.89,3.84,3.84,0,0,1,.41,1.39.65.65,0,0,1-.29.58c-.55,0-.6,0-1-.34-.14-.12-.81-.53-.93-.65s-.63-.45-.72-.55a2.51,2.51,0,0,0-.87-.67.6.6,0,0,1-.38-.5A.65.65,0,0,1,9.33,2.59ZM15.54,1l.05-.14a.86.86,0,0,1,.31-.1c.22.1.51.24.68.34s.6.38.69.43l.22,0c.62,0,4.27-.72,4.41-.72.6-.05.7-.12,1.52-.72a.18.18,0,0,1,.12,0c.31,0,2.64,1.8,2.64,2.23a6.37,6.37,0,0,1-.63,1.15,14.59,14.59,0,0,0-.6,1.8c-.17.58-.48,1.76-.65,2.36.08,0,1.08,0,1.32-.22s.32-.36.46-.36c.41,0,1.22,1,1.51,1.39.77.94.79,1,.79,1.32a4.33,4.33,0,0,1-.52.84c-.29.55-1.13,4.25-1.3,4.61,0,.07-.6,1.42-.67,1.49a2.24,2.24,0,0,1-1.68,1.08c-.24,0-.27-.12-.36-1.13a1.64,1.64,0,0,0-.43-.81,1.58,1.58,0,0,1-.39-.68V15c.22,0,1.15.16,1.35.16a13.31,13.31,0,0,0,1.53-5.52,1.47,1.47,0,0,0-.45-1.22c-.15,0-.32-.05-.41-.05s-1.3.17-1.63.19c-.72.08-4.88.72-6.2,1.11a.71.71,0,0,1-.43,0l-.38,0c-.05.84.65,5.16.65,5.3,0,1.13,0,1.44-.29,1.44s-.48-.24-.94-.84-.41-.6-.41-1.39c0-.15,0-.17,0-.53l-.17-2.18c0-.29-.26-1.64-.36-2,0-.14-.53-.72-.53-.86a.22.22,0,0,1,.22-.22,3.36,3.36,0,0,1,.94.39c.07,0,.36.31.43.31s1.34-.31,1.56-.36a1.83,1.83,0,0,0-.24-.7,1.85,1.85,0,0,1-.19-.81,31.74,31.74,0,0,0-.32-3.51,4.12,4.12,0,0,0-.86-2.3ZM18.11,11.9a4.89,4.89,0,0,0-.43-1.36.54.54,0,0,1-.14-.44,2.45,2.45,0,0,1,.74.2l.53.33a3.78,3.78,0,0,0,1.05-.14c1.49-.34,1.66-.34,2.16-.84a.63.63,0,0,1,.34-.15c.62,0,2.06.94,2.06,1.37,0,.24-.12.36-.43.7a7.45,7.45,0,0,0-.84,1.37c0,.12.19.57.19.67a.37.37,0,0,1-.4.38c-.12,0-.7-.07-.82-.07a7.86,7.86,0,0,0-2.35.43c-.12.58-.12.63-.46.77-.19-.12-.77-.62-.79-.82ZM22.17,1.37l-2,.38c-.17.05-2.07.41-2.26.43a.71.71,0,0,0-.05.22,27.91,27.91,0,0,0,.43,3.38c0,.15.22,1,.24,1.11s.1,1.22.15,1.41a1.47,1.47,0,0,1,.07.17l.89-.05A1.11,1.11,0,0,0,19.84,8c0-.14,0-.77,0-.89s-.07-.5-.07-.57A7.5,7.5,0,0,0,19.48,4a1.86,1.86,0,0,1-.19-.82A.37.37,0,0,1,19.53,3a3.9,3.9,0,0,1,1,.58l.6.17c.19,0,2-.41,2.14-.46s.21-.81.21-1.05a1,1,0,0,0-.52-.89Zm-2,12.09c.12-.07.76-.31.88-.38.41,0,.41,0,.63-.55,0-.15.31-.75.36-.86a2.8,2.8,0,0,0,.09-.75c0-.12,0-.19-.26-.19s-.72.17-.84.19c-.82.1-1.75.19-1.75.46s.29,1.51.33,1.8c0,0,.08.31.15.36Zm2.95-9,0-.17a13.18,13.18,0,0,0-1.39.31c-.36,0-.67,0-.67.36S21,7.13,21,7.51a1.61,1.61,0,0,1-.17.51,16.42,16.42,0,0,0,1.77-.2.45.45,0,0,0,.08-.31V7Z"/><path class="cls-2" d="M8.53,29.35l1.13,0,.77,0a7.24,7.24,0,0,1,1.59.53,1.54,1.54,0,0,1,.43,1.25.38.38,0,0,1-.34.43,9.49,9.49,0,0,1-4-2C8.18,29.42,8.25,29.35,8.53,29.35Zm.32,9.77c.48.26.53.31.69.31h.27c.19-.12.29-.19.53-.74,0,0,.26-.31.31-.39S11.8,36.19,11.9,36s.19-.56.24-.65.62-1.27.67-1.39c.14-.39.14-.44.21-.61.24-.07.27.2.27.27,0,.5-1.47,5.33-1.49,5.45-.07.45-.22,1.2-.22,1.46,0,.1.07.43.07.51,0,.69,0,.93-.35.93a12.39,12.39,0,0,1-1.76-.72c-.14-.17-.4-1.1-.5-1.29a4.51,4.51,0,0,1-.31-.8Zm2.23-15.48a9.38,9.38,0,0,1,2.45.77,2.33,2.33,0,0,1,.55,1.41.54.54,0,0,1-.43.48,3.44,3.44,0,0,1-1.3-.55,7.19,7.19,0,0,1-.7-.24c-.19-.14-1.12-.82-1.17-.84a7.74,7.74,0,0,0-.67-.74C9.78,23.64,9.93,23.64,11.08,23.64Zm8.9,4,.22.26a2.72,2.72,0,0,1,.82.53,6.19,6.19,0,0,1,.19,1.27A15.38,15.38,0,0,0,23,29.5c.43-.08.48-.08.48-.53V28c0-.12-.19-.6-.19-.7s.26-.16.41-.16,1.75.86,1.75,1.2c-.07.17-.15.33-.19.45s-.17.17-.2.29a1.65,1.65,0,0,0,.56-.14l1,0c.91,0,1,.21,1.06.7-.43.43-.58.43-1.88.43-.88,0-1,0-1.08.33s-.33,1.59-.43,1.85c-.19.6-.53.63-.6.63s-.43-.22-.5-.22c-.29,0-1.47.17-1.71.17a5.33,5.33,0,0,1-.48.31c-.19,0-.26-.17-.43-.55a3.71,3.71,0,0,1-.38-1.15,2.1,2.1,0,0,0-.15-.58l-.91.05c-.07,0-1.05-.29-1.08-.31a3.51,3.51,0,0,0-.55,0c-.1.31-.34,2.64-.48,3.12a9.14,9.14,0,0,1-.36,1.39c-.19.39-.22,1.11-.38,1.49l-.94,2-.38.7c-.1.09-.44.6-.51.69a3.53,3.53,0,0,1-1,.89l-.1-.07c.07-.19.12-.29.6-1.27.07-.15.24-1,.34-1.13a12.33,12.33,0,0,0,.6-2c0-.07.43-1.56.43-1.7a1.35,1.35,0,0,1,.05-.34,2.13,2.13,0,0,0,.12-.62c.07-.58.43-3.17.48-3.7s.05-1,.05-1.27c0-.87,0-.94-.17-1.3a2.06,2.06,0,0,0-.05-.38,6.46,6.46,0,0,1-.43-.82c0-.33.26-.38.45-.41s.53.15.6.2.82.6.94.67a.86.86,0,0,0,.24,0c.26,0,1.37-.12,1.58-.12s1.11-.19,1.28-.19c.36,0,.43,0,.43-.36,0-1.73,0-1.9-.58-2.86-.07-.09-.48-.43-.48-.55s0-.12,0-.26A4.41,4.41,0,0,1,21,22.25a3.52,3.52,0,0,1,2.55,1.44c-.08.14-.51.76-.56.91a4.29,4.29,0,0,0-.21,1.63,14.38,14.38,0,0,0,2-.26,11.51,11.51,0,0,1,1.64-.51,9.68,9.68,0,0,1,1.6.43.83.83,0,0,1,.32.58.56.56,0,0,1-.12.34,2.41,2.41,0,0,1-.7.16c-.12,0-.84-.09-.91-.09l-.6.05-1.37,0A4.69,4.69,0,0,1,24,27c-.15,0-.82.07-1,.07L22.62,27l-.5,0c-.43,0-2.59.38-2.71.38Zm-1.29,8.83a1.72,1.72,0,0,1,.6-.09,2,2,0,0,1,1.37.38,4,4,0,0,0,.43.29,1.47,1.47,0,0,0,.6.5c0-.14.86-1.46,1-1.75a1.31,1.31,0,0,0,.19-.91,6.61,6.61,0,0,0-1.1.12c-1.44.62-1.58.69-1.85.69a5.65,5.65,0,0,1-1.13-.33L18.26,35v-.1a11.07,11.07,0,0,0,2-.26c.36-.12,2.06-.53,2.37-.7a9.07,9.07,0,0,1,1.11-.5h.09a4.37,4.37,0,0,1,1.92,1.2c-.14.69-.14.72-.52,1a14.78,14.78,0,0,0-2.14,2.83,1.24,1.24,0,0,1,.43.26c.1.1,2.45,1.13,2.83,1.35s1.56.76,1.78.93.77.6.77.75c0,.31-1.15.38-1.37.38a8.2,8.2,0,0,1-2.42-.5,7.56,7.56,0,0,1-1.52-1.16c-.19-.19-1.1-.91-1.27-1.08-.26.08-1.68,1.37-2,1.56a12.48,12.48,0,0,1-3.41,1,.22.22,0,0,1-.21-.09c.07-.17.36-.31.62-.46A11.1,11.1,0,0,0,21,38.23a5.73,5.73,0,0,0-2.33-1.65Zm-.39-8.81a4.62,4.62,0,0,0-.79,2.52c.31.05,2.38-.05,2.38-.29a4.43,4.43,0,0,0-.17-.47c-.19-1-.19-1.11-.7-1.61a.58.58,0,0,1-.14-.27Zm4.59,4.2a4.25,4.25,0,0,0,.41-1.32s-.05-.14-.05-.21a10.63,10.63,0,0,0-1.83.29,6.88,6.88,0,0,0-.16,1.27c0,.12.07.14.14.16A8.53,8.53,0,0,0,22.89,31.82Z"/><path class="cls-2" d="M20.27,54.05a1.88,1.88,0,0,1-1.82,1.82,1.85,1.85,0,0,1-1.85-1.82,1.8,1.8,0,0,1,1.85-1.85A1.85,1.85,0,0,1,20.27,54.05Z"/><path class="cls-2" d="M17.49,80a.3.3,0,0,1,0-.15c0-.29,0-1.46,0-1.73,0-.07,0-.64,0-.74v-.62l.1-1.92c0-.19-.05-1.35-.1-1.59-.82-.09-2.09.36-2.93.36a5.74,5.74,0,0,1-2.25-1.46c0-.12.12-.15.19-.15s1.27.22,1.39.22l1.25,0c.31,0,1.63-.24,1.92-.24a.61.61,0,0,0,.48-.12c0-.16,0-2.2,0-2.52A13.6,13.6,0,0,0,17,66.5c-.07-.09-.33-.6-.4-.67-.24-.26-.63-.67-.63-.86a.33.33,0,0,1,.36-.36,3.57,3.57,0,0,1,2.47.84,15.43,15.43,0,0,1,1.47,1,.52.52,0,0,1,.24.43c0,.29-.55,1.51-.6,1.78a25.68,25.68,0,0,0-.15,3,4.5,4.5,0,0,0,1-.14c.19,0,1.08-.5,1.15-.5a4.23,4.23,0,0,1,1.92.38,1,1,0,0,1,.58.89,4.83,4.83,0,0,1-1.8.55l-1.18.07c-.14,0-1,.17-1.17.17a2.43,2.43,0,0,0-.6,0v.48l-.07,2.49c0,.29-.1,1.54-.1,1.78s-.07.87-.07,1-.07.86-.07,1,.16.09.69.09l1.66,0,.81,0L25,80a.59.59,0,0,0,.24-.09.93.93,0,0,1,.6-.22c.58,0,2.79,1.37,2.79,2.14a.53.53,0,0,1-.58.52,1.64,1.64,0,0,1-.91-.26.43.43,0,0,0-.22-.07l-2-.65c-.15,0-.8-.17-.92-.22s-2.61-.31-2.76-.31a26.52,26.52,0,0,0-5.2.38l-1.35.27c-.21,0-1.17.38-1.39.41a6.68,6.68,0,0,0-2.28.77l-.1,0c-.09.15-.17.2-.29.2-.5,0-.74-.22-1.53-.87a3.42,3.42,0,0,1-1-1A.6.6,0,0,1,8,80.79c0-.17.19-.2.31-.22l1.08.29c.05,0,.72.07.91.07.39,0,2-.14,2.36-.14a11.46,11.46,0,0,0,1.89-.27c.46-.12,2.55-.29,3-.41Z"/></g></g></svg>