<svg xmlns="http://www.w3.org/2000/svg" viewBox="0 0 36.89 84.89"><defs><style>.cls-1{fill:#7cac82;}.cls-2{fill:#595757;}</style></defs><title>資產 25</title><g id="圖層_2" data-name="圖層 2"><g id="手機直排"><path class="cls-1" d="M36.89,54.41A18.45,18.45,0,1,1,18.45,36,18.45,18.45,0,0,1,36.89,54.41Z"/><path class="cls-2" d="M29.49,19.78c-.08.09-2.36,1.87-3.75,1.87a11.84,11.84,0,0,1-1.82-.46l-2.28-.72c-.58-.19-3.84-1.58-3.94-1.6l-2.42-.94a5.63,5.63,0,0,0-2.35-.41,7.74,7.74,0,0,0-3.53,1c-.79.5-.89.55-1.16.55s-.38-.19-.38-.41a5.62,5.62,0,0,1,.41-1.56.64.64,0,0,1,.53-.53c.09,0,.38.25.45.29a2.2,2.2,0,0,0,.58.08,1.07,1.07,0,0,0,.94-.49c.12-.12.71-.55.81-.67a2.61,2.61,0,0,0,.51-.79c0-.48-.34-.62-.94-.89a1.86,1.86,0,0,1-.84-1.27,25.46,25.46,0,0,0,.79-2.59c-.26,0-.33,0-.84.26a3.21,3.21,0,0,1-1,.24c-.05,0-1.34-.41-1.34-.69,0-.08,0-.22.16-.22a3.88,3.88,0,0,0,.58,0A3.39,3.39,0,0,0,10.55,9c.48-.6.53-.64.79-.64s.6.12,1.42.64c.14.1.79.44.89.53a.8.8,0,0,1,.19.53.43.43,0,0,1-.22.41c-.26.17-.31.19-.38.33A6.21,6.21,0,0,0,11.73,13c0,.29,1.15,1,1.34,1.13A3.42,3.42,0,0,1,14,15.36c0,.41-.29.46-.51.51a4.27,4.27,0,0,0-1.12.76,11,11,0,0,1,4.39.82c.12.05,4.41,1.2,5.4,1.42.21,0,3.89.57,4.37.57,2.08,0,2.52,0,3,.22ZM9.32,2.59a7.57,7.57,0,0,1,3.51.89,3.84,3.84,0,0,1,.41,1.39.65.65,0,0,1-.29.58c-.55,0-.6,0-1-.34-.14-.12-.82-.53-.94-.65s-.62-.45-.72-.55a2.49,2.49,0,0,0-.86-.67.6.6,0,0,1-.38-.5A.7.7,0,0,1,9.32,2.59ZM15.54,1l.05-.14a.86.86,0,0,1,.31-.1,6.92,6.92,0,0,1,.67.34c.12,0,.6.38.7.43l.22,0c.62,0,4.27-.72,4.41-.72.6-.05.7-.12,1.51-.72a.24.24,0,0,1,.12,0c.32,0,2.64,1.8,2.64,2.23a6.33,6.33,0,0,1-.62,1.15,14.59,14.59,0,0,0-.6,1.8c-.17.58-.48,1.76-.65,2.36.07,0,1.08,0,1.32-.22s.31-.36.46-.36c.41,0,1.22,1,1.51,1.39.77.94.79,1,.79,1.32a4.33,4.33,0,0,1-.52.84c-.29.55-1.13,4.25-1.3,4.61,0,.07-.6,1.42-.67,1.49a2.24,2.24,0,0,1-1.68,1.08c-.24,0-.27-.12-.36-1.13a1.68,1.68,0,0,0-.44-.81,1.64,1.64,0,0,1-.38-.68V15c.22,0,1.15.16,1.34.16a13.17,13.17,0,0,0,1.54-5.52,1.45,1.45,0,0,0-.46-1.22,3.94,3.94,0,0,0-.4-.05c-.22,0-1.3.17-1.64.19-.72.08-4.87.72-6.19,1.11a.71.71,0,0,1-.43,0l-.38,0c-.05.84.64,5.16.64,5.3,0,1.13,0,1.44-.28,1.44s-.48-.24-.94-.84-.41-.6-.41-1.39c0-.15,0-.17,0-.53l-.17-2.18c0-.29-.26-1.64-.36-2,0-.14-.53-.72-.53-.86a.22.22,0,0,1,.22-.22,3.43,3.43,0,0,1,.93.39c.08,0,.36.31.44.31s1.34-.31,1.56-.36a1.83,1.83,0,0,0-.24-.7,1.77,1.77,0,0,1-.2-.81,31.41,31.41,0,0,0-.31-3.51,4.12,4.12,0,0,0-.86-2.3ZM18.11,11.9a4.89,4.89,0,0,0-.43-1.36.51.51,0,0,1-.15-.44,2.52,2.52,0,0,1,.75.2l.53.33a3.83,3.83,0,0,0,1.05-.14c1.49-.34,1.66-.34,2.16-.84a.63.63,0,0,1,.34-.15c.62,0,2.06.94,2.06,1.37,0,.24-.12.36-.43.7a7.45,7.45,0,0,0-.84,1.37c0,.12.19.57.19.67a.38.38,0,0,1-.41.38c-.12,0-.69-.07-.81-.07a7.8,7.8,0,0,0-2.35.43c-.12.58-.12.63-.46.77-.19-.12-.77-.62-.79-.82ZM22.17,1.37l-2,.38c-.16.05-2.06.41-2.25.43a.51.51,0,0,0-.05.22,27.91,27.91,0,0,0,.43,3.38c0,.15.22,1,.24,1.11s.1,1.22.15,1.41l.07.17.89-.05A1.11,1.11,0,0,0,19.84,8a8.8,8.8,0,0,1,0-.89c0-.09-.07-.5-.07-.57A7.5,7.5,0,0,0,19.48,4a1.86,1.86,0,0,1-.19-.82A.34.34,0,0,1,19.53,3a4.09,4.09,0,0,1,1,.58l.6.17c.19,0,2-.41,2.14-.46s.21-.81.21-1.05a1,1,0,0,0-.53-.89Zm-2,12.09c.12-.07.77-.31.89-.38.41,0,.41,0,.63-.55,0-.15.31-.75.36-.86a2.8,2.8,0,0,0,.09-.75c0-.12,0-.19-.26-.19s-.72.17-.84.19c-.82.1-1.75.19-1.75.46s.28,1.51.33,1.8c0,0,.07.31.15.36Zm3-9,0-.17a12.65,12.65,0,0,0-1.39.31c-.36,0-.67,0-.67.36S21,7.13,21,7.51a1.39,1.39,0,0,1-.16.51,17,17,0,0,0,1.77-.2.51.51,0,0,0,.07-.31V7Z"/><path class="cls-2" d="M8.53,29.35l1.13,0,.77,0a7,7,0,0,1,1.58.53,1.52,1.52,0,0,1,.44,1.25.38.38,0,0,1-.34.43,9.58,9.58,0,0,1-4-2C8.17,29.42,8.24,29.35,8.53,29.35Zm.32,9.77c.47.26.52.31.69.31h.27c.19-.12.28-.19.52-.74,0,0,.27-.31.32-.39S11.8,36.19,11.89,36s.2-.56.24-.65.63-1.27.68-1.39c.14-.39.14-.44.21-.61.24-.07.27.2.27.27,0,.5-1.47,5.33-1.49,5.45-.07.45-.22,1.2-.22,1.46,0,.1.07.43.07.51,0,.69,0,.93-.36.93a12.82,12.82,0,0,1-1.75-.72A11.86,11.86,0,0,1,9,39.94a4.51,4.51,0,0,1-.31-.8Zm2.23-15.48a9.5,9.5,0,0,1,2.45.77,2.33,2.33,0,0,1,.55,1.41.54.54,0,0,1-.43.48,3.44,3.44,0,0,1-1.3-.55,7.19,7.19,0,0,1-.7-.24l-1.17-.84a9.45,9.45,0,0,0-.67-.74C9.78,23.64,9.93,23.64,11.08,23.64Zm8.9,4,.22.26a2.58,2.58,0,0,1,.81.53,6.21,6.21,0,0,1,.2,1.27A15.38,15.38,0,0,0,23,29.5c.43-.08.48-.08.48-.53V28c0-.12-.19-.6-.19-.7s.26-.16.4-.16c.29,0,1.76.86,1.76,1.2-.08.17-.15.33-.2.45s-.16.17-.19.29a1.59,1.59,0,0,0,.55-.14l1,0c.91,0,1,.21,1.05.7-.43.43-.57.43-1.87.43-.89,0-1,0-1.08.33s-.33,1.59-.43,1.85c-.19.6-.53.63-.6.63s-.43-.22-.5-.22c-.29,0-1.47.17-1.71.17a5.33,5.33,0,0,1-.48.31c-.19,0-.26-.17-.43-.55a3.71,3.71,0,0,1-.38-1.15,3.22,3.22,0,0,0-.15-.58l-.91.05c-.07,0-1.06-.29-1.08-.31a3.57,3.57,0,0,0-.55,0c-.1.31-.34,2.64-.48,3.12a9.14,9.14,0,0,1-.36,1.39c-.19.39-.22,1.11-.39,1.49l-.93,2-.39.7c-.09.09-.43.6-.5.69a3.53,3.53,0,0,1-1,.89l-.1-.07c.07-.19.12-.29.6-1.27.07-.15.24-1,.34-1.13a12.33,12.33,0,0,0,.6-2c0-.07.43-1.56.43-1.7a1.35,1.35,0,0,1,.05-.34,2.13,2.13,0,0,0,.12-.62c.07-.58.43-3.17.48-3.7s0-1,0-1.27c0-.87,0-.94-.16-1.3a2.06,2.06,0,0,0-.05-.38,6.46,6.46,0,0,1-.43-.82c0-.33.26-.38.45-.41s.53.15.6.2.82.6.94.67a.86.86,0,0,0,.24,0c.26,0,1.37-.12,1.58-.12s1.11-.19,1.27-.19c.36,0,.44,0,.44-.36,0-1.73,0-1.9-.58-2.86-.07-.09-.48-.43-.48-.55a.63.63,0,0,1,0-.26A4.55,4.55,0,0,1,21,22.25a3.5,3.5,0,0,1,2.54,1.44c-.07.14-.5.76-.55.91a4.29,4.29,0,0,0-.21,1.63,14.38,14.38,0,0,0,2-.26,11.34,11.34,0,0,1,1.63-.51,9.79,9.79,0,0,1,1.61.43.79.79,0,0,1,.31.58.5.5,0,0,1-.12.34,2.39,2.39,0,0,1-.69.16c-.12,0-.84-.09-.91-.09l-.6.05-1.37,0A4.58,4.58,0,0,1,24,27c-.14,0-.81.07-1,.07L22.62,27l-.5,0c-.43,0-2.59.38-2.71.38Zm-1.29,8.83a1.63,1.63,0,0,1,.6-.09,2,2,0,0,1,1.36.38c.05.07.39.24.44.29a1.47,1.47,0,0,0,.6.5c0-.14.86-1.46,1-1.75a1.31,1.31,0,0,0,.19-.91,6.61,6.61,0,0,0-1.1.12c-1.44.62-1.59.69-1.85.69a5.65,5.65,0,0,1-1.13-.33L18.25,35v-.1a11.06,11.06,0,0,0,2-.26c.36-.12,2.06-.53,2.37-.7a9.07,9.07,0,0,1,1.11-.5h.09a4.42,4.42,0,0,1,1.92,1.2c-.14.69-.14.72-.53,1a15.17,15.17,0,0,0-2.13,2.83,1.24,1.24,0,0,1,.43.26c.1.1,2.45,1.13,2.83,1.35s1.56.76,1.78.93.77.6.77.75c0,.31-1.16.38-1.37.38a8.32,8.32,0,0,1-2.43-.5,7.73,7.73,0,0,1-1.51-1.16c-.19-.19-1.1-.91-1.27-1.08-.26.08-1.68,1.37-2,1.56a12.57,12.57,0,0,1-3.41,1,.22.22,0,0,1-.21-.09c.07-.17.36-.31.62-.46A11.13,11.13,0,0,0,21,38.23a5.76,5.76,0,0,0-2.32-1.65Zm-.39-8.81a4.54,4.54,0,0,0-.79,2.52c.31.05,2.38-.05,2.38-.29a4.43,4.43,0,0,0-.17-.47c-.19-1-.19-1.11-.7-1.61a.58.58,0,0,1-.14-.27Zm4.59,4.2a4.5,4.5,0,0,0,.4-1.32s0-.14,0-.21a10.63,10.63,0,0,0-1.83.29,6.84,6.84,0,0,0-.17,1.27c0,.12.08.14.15.16A8.66,8.66,0,0,0,22.89,31.82Z"/><path class="cls-2" d="M20.27,54.05a1.88,1.88,0,0,1-1.82,1.82,1.85,1.85,0,0,1-1.85-1.82,1.8,1.8,0,0,1,1.85-1.85A1.85,1.85,0,0,1,20.27,54.05Z"/><path class="cls-2" d="M27.83,78.65c.36.14.41.33.65,1.22s.26,1,.46,1.85a5.7,5.7,0,0,0,.59,1.39l.51.51a5.33,5.33,0,0,1,.07.55.74.74,0,0,1-.7.72A4.88,4.88,0,0,1,26.75,84a6.56,6.56,0,0,1-1.58-1.49c-.82-.62-2.79-4.22-2.79-8.06,0-.36.05-1.94.07-2.28l.24-3.22a4.66,4.66,0,0,0,.08-.64c0-.1-.2-.56-.41-.56-.41,0-2.19.32-2.52.36s-1.2.34-1.39.39-.75.09-.87.12l-2.73.69a3.35,3.35,0,0,1-1.68.27c0,.09.19.45.19.53s-.15.67-.22,1a1.94,1.94,0,0,0-.05.53c0,.46-.31,4.06-.43,4.63l-.41,2a14.19,14.19,0,0,1-1.85,4c-.67.81-1.92,2.2-2.47,2.2a.48.48,0,0,1-.21-.07l0-.12A9.84,9.84,0,0,1,8.56,83a11,11,0,0,0,2-4.53A24.4,24.4,0,0,0,11.29,73c0-2.21-.07-2.52-.69-3.67-.2-.34-.22-.36-.41-.7a.28.28,0,0,1-.1-.21c0-.1.05-.12.17-.22l.41,0a4.17,4.17,0,0,1,1.2.33,1.11,1.11,0,0,0,.48.34c.91-.19,4.9-1.1,5.71-1.25A25.19,25.19,0,0,0,22,66.7c.12-.1.6-.63.74-.63.87,0,3,1.8,3,2.38,0,.19,0,.21-.44.45a2.23,2.23,0,0,0-1.08,1.56,16.51,16.51,0,0,0-.52,4.42,12,12,0,0,0,1.65,5.93,4.81,4.81,0,0,0,2.16,2c.34,0,.44-1.68.44-1.92s-.13-1.49-.13-1.73a3.39,3.39,0,0,1,0-.48ZM14.46,78.5l-.91-3a.17.17,0,0,0-.14-.14v0l0-.24c.08,0,.1-.05.15-.05s.84.36,1,.36a12.83,12.83,0,0,0,2-.5,2.78,2.78,0,0,0-.24-1.15,5.42,5.42,0,0,0-.43-.41c-.21,0-1.25.12-1.44.12s-.24,0-.24-.24.22-.34.84-.65A12.41,12.41,0,0,0,18.37,70c.15-.17.12-.26.08-.46.12-.12.16-.14.6-.21C19.67,69.65,21,70.42,21,71a.38.38,0,0,1-.38.38,3.4,3.4,0,0,0-1.92.56c-.12.07-1.08.57-1.25.62s-.19.17-.22.24a2.69,2.69,0,0,1,1.23,1.22.59.59,0,0,0-.08.27c0,.12.53-.07.68-.12s.5-.53.6-.53c.76,0,2.16.86,2.16,1.51,0,.17,0,.19-.41.43a11,11,0,0,0-1,1.18c0,.48-.05.5-.48.67a9.58,9.58,0,0,0-2,.67,13.52,13.52,0,0,0-.21,1.4c0,.12-.12.74-.12.86a14.6,14.6,0,0,0,2.59-.74,2.31,2.31,0,0,0-.39-.92,2.38,2.38,0,0,1-.24-.55.35.35,0,0,1,.22-.09,6.71,6.71,0,0,1,1.92,1.39c.46.33,1,.69,1,2.16,0,.12,0,.65-.29.65-.57,0-1.27-1.13-1.41-1.37s-.29-.55-.41-.55-5,1.82-5.5,2.06c-.17.1-.79.6-.93.7a3.09,3.09,0,0,1-1.49-2.09,1.14,1.14,0,0,1,.07-.19.94.94,0,0,1,.65.12,4.89,4.89,0,0,0,.93.21,18.2,18.2,0,0,0,2.21-.52s.05-.32.07-.49.08-.52.08-.62,0-1,0-1.13c-.09,0-.5.1-.57.1-.34,0-.51.55-.6.91-.34,0-.41-.1-1-.67Zm.65-2.44a6.2,6.2,0,0,1,.53,1.51,1.65,1.65,0,0,0,.43.09,5.93,5.93,0,0,0,.65-.19,3.85,3.85,0,0,0,.05-.5c0-.12-.05-.65-.05-.75a2,2,0,0,0,0-.6c-.14,0-.77.22-.94.29s-.5,0-.57.07Zm3.12-.84a3.74,3.74,0,0,0-.14.88c0,.15-.05.84-.05,1s.31,0,.55-.1.38-.19.5-.79c0-.17.27-.82.29-1a2.64,2.64,0,0,0,0-.36A5.47,5.47,0,0,0,18.23,75.22Z"/></g></g></svg>